<svg width="285" height="218" viewBox="0 0 285 218" fill="none" xmlns="http://www.w3.org/2000/svg">
<mask id="mask0_6_59" style="mask-type:alpha" maskUnits="userSpaceOnUse" x="0" y="0" width="285" height="218">
<path d="M0 20C0 8.9543 8.95431 0 20 0H265C276.046 0 285 8.95431 285 20V88C285 159.797 226.797 218 155 218H130C58.203 218 0 159.797 0 88V20Z" fill="#E8F3FF"/>
</mask>
<g mask="url(#mask0_6_59)">
<rect width="285" height="370" rx="20" fill="#E8F3FF"/>
<path d="M125.539 72.3159H55.0813V162.388H125.539V72.3159Z" fill="#EBEBEB"/>
<path d="M125.545 162.388L90.3649 162.51L55.0813 162.576H54.8863V162.382L54.7828 72.3159V72.0186H55.0813L125.539 72.0853H125.77V72.3159L125.691 117.413L125.545 162.388ZM125.545 162.388L125.393 117.291L125.314 72.3219L125.545 72.5525L55.0813 72.6131L55.3798 72.3159L55.2762 162.388L55.0813 162.194L90.2614 162.261L125.545 162.388Z" fill="#DBDBDB"/>
<path d="M62.7935 91.5643L90.3162 91.4976L117.839 91.5643L90.3162 91.6371L62.7935 91.5643Z" fill="#C7C7C7"/>
<path d="M62.7935 93.8027L90.3162 93.7299L117.839 93.8027L90.3162 93.8694L62.7935 93.8027Z" fill="#C7C7C7"/>
<path d="M62.7935 96.0351L90.3162 95.9684L117.839 96.0351L90.3162 96.1079L62.7935 96.0351Z" fill="#C7C7C7"/>
<path d="M62.7935 98.2735L90.3162 98.2007L117.839 98.2735L90.3162 98.3403L62.7935 98.2735Z" fill="#C7C7C7"/>
<path d="M62.7935 100.506L90.3162 100.439L117.839 100.506L90.3162 100.579L62.7935 100.506Z" fill="#C7C7C7"/>
<path d="M62.7935 102.744L90.3162 102.672L117.839 102.744L90.3162 102.811L62.7935 102.744Z" fill="#C7C7C7"/>
<path d="M62.7935 104.977L90.3162 104.91L117.839 104.977L90.3162 105.05L62.7935 104.977Z" fill="#C7C7C7"/>
<path d="M62.7935 107.215L90.3162 107.143L117.839 107.215L90.3162 107.282L62.7935 107.215Z" fill="#C7C7C7"/>
<path d="M62.7935 109.448L90.3162 109.381L117.839 109.448L90.3162 109.521L62.7935 109.448Z" fill="#C7C7C7"/>
<path d="M62.7935 111.686L90.3162 111.613L117.839 111.686L90.3162 111.753L62.7935 111.686Z" fill="#C7C7C7"/>
<path d="M62.7935 113.919L90.3162 113.852L117.839 113.919L90.3162 113.985L62.7935 113.919Z" fill="#C7C7C7"/>
<path d="M62.7935 116.157L90.3162 116.084L117.839 116.157L90.3162 116.224L62.7935 116.157Z" fill="#C7C7C7"/>
<path d="M62.7935 118.389L90.3162 118.323L117.839 118.389L90.3162 118.456L62.7935 118.389Z" fill="#C7C7C7"/>
<path d="M62.7935 120.622L90.3162 120.555L117.839 120.622L90.3162 120.695L62.7935 120.622Z" fill="#C7C7C7"/>
<path d="M62.7935 122.86L90.3162 122.794L117.839 122.86L90.3162 122.927L62.7935 122.86Z" fill="#C7C7C7"/>
<path d="M72.784 116.084H68.6111V125.463H72.784V116.084Z" fill="#2D5BE3"/>
<path d="M80.5266 111.08H76.3538V125.463H80.5266V111.08Z" fill="#2D5BE3"/>
<path d="M88.2693 105.48H84.0964V125.469H88.2693V105.48Z" fill="#2D5BE3"/>
<path d="M96.0181 103.072H91.8452V125.463H96.0181V103.072Z" fill="#2D5BE3"/>
<path d="M103.761 98.7831H99.5879V125.463H103.761V98.7831Z" fill="#2D5BE3"/>
<path d="M111.503 94.5489H107.331V125.463H111.503V94.5489Z" fill="#2D5BE3"/>
<path d="M64.2859 89.9991L64.3956 98.8681L64.4687 107.737C64.5174 113.646 64.5357 119.56 64.5418 125.469L64.2859 125.214L77.6757 125.202L91.0655 125.232L104.455 125.317L117.845 125.469L104.455 125.621L91.0655 125.705L77.6757 125.736L64.2859 125.724H64.0301V125.469C64.0423 119.56 64.0545 113.646 64.1032 107.737L64.1763 98.8681L64.2859 89.9991Z" fill="#C7C7C7"/>
<path d="M72.784 127.337H68.6111V127.713H72.784V127.337Z" fill="#C7C7C7"/>
<path d="M80.5266 127.337H76.3538V127.713H80.5266V127.337Z" fill="#C7C7C7"/>
<path d="M88.2693 127.337H84.0964V127.713H88.2693V127.337Z" fill="#C7C7C7"/>
<path d="M96.0181 127.337H91.8452V127.713H96.0181V127.337Z" fill="#C7C7C7"/>
<path d="M103.761 127.337H99.5879V127.713H103.761V127.337Z" fill="#C7C7C7"/>
<path d="M111.503 127.337H107.331V127.713H111.503V127.337Z" fill="#C7C7C7"/>
<path d="M69.0802 117.267C71.1209 117.243 73.1556 117.079 75.1781 116.806C77.2006 116.545 79.2048 116.194 81.1846 115.726C85.1382 114.792 89.0247 113.524 92.6554 111.704C96.3044 109.939 99.7097 107.664 102.676 104.91L103.243 104.401L103.779 103.861L104.845 102.775C105.503 102.004 106.21 101.27 106.807 100.451C108.098 98.8863 109.17 97.1514 110.224 95.4103L110.255 95.4285C108.397 99.0501 105.984 102.423 102.999 105.25C101.543 106.694 99.9047 107.949 98.2294 109.126C96.5481 110.303 94.7571 111.322 92.9174 112.232C89.2257 114.034 85.2965 115.326 81.2881 116.163C77.2737 116.988 73.1678 117.437 69.0802 117.267Z" fill="#263238"/>
<path d="M111.4 98.31L110.821 98.4556L110.115 95.6166L107.324 96.5265L107.136 95.9624L110.535 94.8522L111.4 98.31Z" fill="#263238"/>
<path d="M61.6184 141.726H119.015V139.415H61.6184V141.726Z" fill="#DBDBDB"/>
<path d="M61.6154 147.56H93.9324V145.248H61.6154V147.56Z" fill="#DBDBDB"/>
<path d="M74.1553 84.5812H106.472V82.2699H74.1553V84.5812Z" fill="#DBDBDB"/>
<path d="M112.222 184.348L43.2084 198.471L25 110.242L76.2441 99.7599L97.4862 112.93L112.222 184.348Z" fill="#2D5BE3"/>
<path opacity="0.8" d="M112.222 184.348L43.2084 198.471L25 110.242L76.2441 99.7599L97.4862 112.93L112.222 184.348Z" fill="white"/>
<path d="M76.2441 99.7599L97.4862 112.93L79.7165 116.57L76.2441 99.7599Z" fill="#2D5BE3"/>
<path d="M35.2559 125.941L73.6291 118.087L73.1619 115.823L34.7887 123.677L35.2559 125.941Z" fill="#DBDBDB"/>
<path d="M36.4335 131.657L74.8066 123.804L74.3394 121.54L35.9662 129.393L36.4335 131.657Z" fill="#DBDBDB"/>
<path d="M37.6124 137.38L75.9856 129.526L75.5184 127.262L37.1452 135.116L37.6124 137.38Z" fill="#DBDBDB"/>
<path d="M38.7954 143.095L95.0156 131.59L94.5484 129.326L38.3282 140.831L38.7954 143.095Z" fill="#DBDBDB"/>
<path d="M39.9791 148.81L96.1993 137.305L95.7321 135.041L39.5119 146.547L39.9791 148.81Z" fill="#DBDBDB"/>
<path d="M41.158 154.533L97.3782 143.027L96.911 140.764L40.6908 152.269L41.158 154.533Z" fill="#DBDBDB"/>
<path d="M42.3356 160.25L98.5558 148.744L98.0886 146.48L41.8684 157.986L42.3356 160.25Z" fill="#DBDBDB"/>
<path d="M43.5133 165.966L99.7335 154.461L99.2663 152.197L43.0461 163.702L43.5133 165.966Z" fill="#DBDBDB"/>
<path d="M44.698 171.688L100.918 160.182L100.451 157.918L44.2308 169.424L44.698 171.688Z" fill="#DBDBDB"/>
<path d="M45.8757 177.404L102.096 165.898L101.629 163.635L45.4085 175.14L45.8757 177.404Z" fill="#DBDBDB"/>
<path d="M47.0546 183.127L103.275 171.621L102.808 169.357L46.5874 180.863L47.0546 183.127Z" fill="#DBDBDB"/>
<path d="M48.2382 188.842L104.458 177.336L103.991 175.073L47.771 186.578L48.2382 188.842Z" fill="#DBDBDB"/>
<path d="M253.747 120.222C227.924 122.09 202.155 123.958 176.436 125.827C167.633 92.4985 177.063 59.1702 170.204 25.8419C196.027 23.9735 221.801 22.1051 247.515 20.2366C256.311 53.5649 246.875 86.8932 253.747 120.222Z" fill="#EBEBEB"/>
<path d="M253.747 120.221C227.936 122.151 202.18 124.086 176.491 126.015C176.43 126.021 176.369 126.027 176.308 126.027C176.29 125.966 176.271 125.9 176.259 125.839C167.414 92.5106 176.801 59.1884 169.912 25.8601C169.893 25.7569 169.869 25.6599 169.851 25.5567C169.948 25.5507 170.052 25.5446 170.149 25.5325C195.972 23.6944 221.747 21.8563 247.466 20.0182C247.539 20.0121 247.606 20.0061 247.679 20C247.698 20.0728 247.716 20.1395 247.734 20.2123C256.458 53.5527 246.948 86.8871 253.747 120.221ZM253.747 120.221C246.808 86.8992 256.165 53.5709 247.302 20.2487C247.393 20.3154 247.478 20.3822 247.57 20.4489C221.856 22.3477 196.088 24.2464 170.265 26.1391C170.344 26.0299 170.423 25.9207 170.502 25.8176C177.331 59.152 167.859 92.4802 176.619 125.815C176.539 125.754 176.46 125.699 176.381 125.639C202.125 123.831 227.911 122.029 253.747 120.221Z" fill="#DBDBDB"/>
<path d="M179.536 40.1219C194.017 39.0846 208.485 38.0473 222.947 37.0038C223.038 37.8592 223.123 38.7145 223.202 39.5699C208.728 40.6072 194.236 41.6446 179.738 42.688C179.677 41.8326 179.61 40.9773 179.536 40.1219Z" fill="#DBDBDB"/>
<path d="M179.969 46.6007C194.492 45.5634 209.002 44.5261 223.507 43.4827C223.562 44.338 223.611 45.1934 223.653 46.0487C209.136 47.0861 194.608 48.1234 180.073 49.1668C180.042 48.3114 180.012 47.4561 179.969 46.6007Z" fill="#DBDBDB"/>
<path d="M180.17 53.0857C194.723 52.0483 209.271 51.011 223.812 49.9676C223.836 50.8229 223.86 51.6783 223.873 52.5336C209.319 53.571 194.76 54.6083 180.201 55.6517C180.194 54.7964 180.182 53.941 180.17 53.0857Z" fill="#DBDBDB"/>
<path d="M180.201 59.5645C201.558 58.0418 222.91 56.5192 244.243 54.9965C244.25 55.8519 244.256 56.7072 244.256 57.5626C222.904 59.0852 201.546 60.6079 180.176 62.1305C180.188 61.2752 180.194 60.4198 180.201 59.5645Z" fill="#DBDBDB"/>
<path d="M180.109 66.0433C201.491 64.5206 222.861 62.998 244.231 61.4753C244.219 62.3307 244.207 63.186 244.195 64.0414C222.819 65.564 201.443 67.0867 180.054 68.6093C180.079 67.754 180.097 66.8986 180.109 66.0433Z" fill="#DBDBDB"/>
<path d="M179.963 72.5221C201.351 70.9994 222.739 69.4768 244.122 67.9542C244.103 68.8095 244.085 69.6649 244.061 70.5202C222.672 72.0429 201.284 73.5655 179.902 75.0881C179.92 74.2389 179.939 73.3835 179.963 72.5221Z" fill="#DBDBDB"/>
<path d="M179.811 79.007C201.193 77.4844 222.575 75.9617 243.963 74.4391C243.945 75.2944 243.921 76.1498 243.902 77.0051C222.52 78.5278 201.138 80.0504 179.762 81.5731C179.774 80.7177 179.792 79.8624 179.811 79.007Z" fill="#DBDBDB"/>
<path d="M179.707 85.4858C201.071 83.9632 222.441 82.4405 243.817 80.9179C243.799 81.7733 243.787 82.6286 243.774 83.484C222.404 85.0066 201.041 86.5292 179.689 88.0519C179.695 87.1965 179.701 86.3412 179.707 85.4858Z" fill="#DBDBDB"/>
<path d="M179.713 91.9645C201.047 90.4419 222.386 88.9193 243.744 87.3966C243.744 88.252 243.744 89.1073 243.744 89.9627C222.404 91.4853 201.071 93.0079 179.756 94.5306C179.738 93.6752 179.725 92.8199 179.713 91.9645Z" fill="#DBDBDB"/>
<path d="M179.89 98.4495C201.175 96.9269 222.478 95.4042 243.799 93.8816C243.817 94.7369 243.835 95.5923 243.866 96.4476C222.563 97.9703 201.284 99.4929 180.018 101.016C179.963 100.16 179.92 99.3049 179.89 98.4495Z" fill="#DBDBDB"/>
<path d="M180.28 104.928C201.504 103.406 222.758 101.883 244.024 100.36C244.067 101.216 244.122 102.071 244.176 102.926C222.928 104.449 201.705 105.972 180.505 107.494C180.426 106.639 180.347 105.784 180.28 104.928Z" fill="#DBDBDB"/>
<path d="M180.95 111.407C202.107 109.885 223.288 108.362 244.493 106.839C244.572 107.695 244.664 108.55 244.755 109.405C223.574 110.928 202.423 112.451 181.303 113.973C181.181 113.118 181.059 112.263 180.95 111.407Z" fill="#DBDBDB"/>
<path d="M242.757 155.897C216.099 151.396 189.771 146.895 163.692 142.394C167.067 109.484 183.782 76.5683 182.93 43.6586C209.587 48.1598 235.916 52.661 261.995 57.1622C258.62 90.0719 241.898 122.982 242.757 155.897Z" fill="#2D5BE3"/>
<path opacity="0.8" d="M242.757 155.897C216.099 151.396 189.771 146.895 163.692 142.394C167.067 109.484 183.782 76.5683 182.93 43.6586C209.587 48.1598 235.916 52.661 261.995 57.1622C258.62 90.0719 241.898 122.982 242.757 155.897Z" fill="white"/>
<path d="M189.484 59.522C203.934 62.0274 218.317 64.5267 232.639 67.0321C232.492 67.8753 232.34 68.7246 232.176 69.5678C217.896 67.0625 203.556 64.5631 189.155 62.0577C189.271 61.2145 189.387 60.3713 189.484 59.522Z" fill="#DBDBDB"/>
<path d="M188.558 65.922C202.898 68.4274 217.172 70.9267 231.402 73.4321C231.225 74.2753 231.043 75.1246 230.854 75.9678C216.654 73.4624 202.417 70.9631 188.114 68.4577C188.272 67.6145 188.418 66.7652 188.558 65.922Z" fill="#DBDBDB"/>
<path d="M187.364 72.322C201.607 74.8273 215.801 77.3267 229.958 79.8321C229.757 80.6753 229.55 81.5246 229.343 82.3678C215.21 79.8624 201.041 77.3631 186.834 74.8577C187.011 74.0145 187.194 73.1652 187.364 72.322Z" fill="#DBDBDB"/>
<path d="M185.951 78.7219C206.712 82.392 227.388 86.056 248.027 89.7261C247.801 90.5694 247.57 91.4186 247.344 92.2619C226.724 88.5917 206.072 84.9277 185.348 81.2576C185.555 80.4144 185.756 79.5651 185.951 78.7219Z" fill="#DBDBDB"/>
<path d="M184.379 85.1218C205.055 88.7919 225.682 92.456 246.284 96.1261C246.053 96.9693 245.815 97.8186 245.584 98.6618C224.981 94.9917 204.373 91.3277 183.721 87.6575C183.941 86.8083 184.16 85.965 184.379 85.1218Z" fill="#DBDBDB"/>
<path d="M182.686 91.5219C203.313 95.192 223.909 98.856 244.512 102.526C244.28 103.369 244.042 104.219 243.811 105.062C223.196 101.392 202.606 97.7277 181.991 94.0576C182.223 93.2083 182.454 92.3651 182.686 91.5219Z" fill="#DBDBDB"/>
<path d="M180.925 97.9218C201.528 101.592 222.124 105.256 242.757 108.926C242.532 109.769 242.306 110.619 242.081 111.462C221.43 107.792 200.827 104.128 180.225 100.458C180.456 99.6082 180.694 98.765 180.925 97.9218Z" fill="#DBDBDB"/>
<path d="M179.153 104.322C199.761 107.992 220.388 111.656 241.076 115.326C240.863 116.169 240.649 117.019 240.442 117.862C219.724 114.192 199.079 110.528 178.458 106.857C178.69 106.008 178.921 105.165 179.153 104.322Z" fill="#DBDBDB"/>
<path d="M177.417 110.716C198.062 114.386 218.749 118.05 239.522 121.72C239.327 122.563 239.139 123.412 238.95 124.256C218.134 120.585 197.416 116.921 176.753 113.251C176.972 112.408 177.191 111.565 177.417 110.716Z" fill="#DBDBDB"/>
<path d="M175.766 117.116C196.472 120.786 217.251 124.45 238.133 128.12C237.963 128.963 237.798 129.812 237.646 130.656C216.709 126.985 195.887 123.321 175.144 119.651C175.351 118.808 175.559 117.965 175.766 117.116Z" fill="#DBDBDB"/>
<path d="M174.255 123.516C195.058 127.186 215.953 130.85 236.982 134.52C236.848 135.363 236.714 136.212 236.598 137.056C215.502 133.385 194.559 129.721 173.713 126.051C173.877 125.208 174.066 124.365 174.255 123.516Z" fill="#DBDBDB"/>
<path d="M172.927 129.916C193.852 133.586 214.893 137.25 236.093 140.92C235.995 141.763 235.91 142.612 235.831 143.456C214.552 139.785 193.45 136.121 172.47 132.451C172.61 131.608 172.769 130.759 172.927 129.916Z" fill="#DBDBDB"/>
<path d="M210.501 142.406H73.8683V241.032H210.501V142.406Z" fill="#2D5BE3"/>
<path d="M122.146 132.19H73.8683V142.406H124.918L122.146 132.19Z" fill="#2D5BE3"/>
<g opacity="0.1">
<path opacity="0.1" d="M210.501 142.406H73.8683V241.032H210.501V142.406Z" fill="black"/>
<path opacity="0.1" d="M122.146 132.19H73.8683V142.406H124.918L122.146 132.19Z" fill="black"/>
</g>
<path d="M209.575 204.125C182.899 196.523 156.814 189.013 131.137 181.57C137.595 151.518 155.687 122.072 156.918 91.5642C183.569 98.7225 209.636 105.893 235.295 113.087C228.752 143.637 210.678 173.374 209.575 204.125Z" fill="#EBEBEB"/>
<path d="M209.575 204.125C182.893 196.584 156.802 189.129 131.101 181.74C131.04 181.722 130.979 181.703 130.912 181.685C130.924 181.631 130.936 181.57 130.948 181.515C137.381 151.451 155.437 121.999 156.607 91.4792C156.613 91.3883 156.613 91.2973 156.619 91.2002C156.723 91.2305 156.826 91.2548 156.93 91.2851C183.6 98.4676 209.673 105.668 235.337 112.893C235.41 112.912 235.477 112.936 235.551 112.954C235.538 113.021 235.52 113.087 235.508 113.148C228.88 143.68 210.751 173.399 209.575 204.125ZM209.575 204.125C210.605 173.356 228.624 143.601 235.081 113.033C235.136 113.118 235.197 113.203 235.252 113.288C209.6 106.117 183.545 98.9711 156.906 91.8432C157.015 91.7765 157.119 91.7158 157.228 91.6491C155.931 122.144 137.808 151.578 131.326 181.625C131.277 181.552 131.229 181.479 131.174 181.4C156.832 188.898 182.899 196.469 209.575 204.125Z" fill="#DBDBDB"/>
<path d="M205.347 148.278C201.382 158.827 189.363 164.706 178.148 161.406C166.878 158.112 161.054 146.962 164.928 136.473C168.766 125.966 180.359 120.015 191.72 123.254C203.124 126.5 209.362 137.723 205.347 148.278Z" fill="#455A64"/>
<path d="M185.153 142.357C180.554 147.586 175.9 152.803 171.361 158.026C164.52 152.925 162.059 144.335 164.928 136.467C168.742 126.033 180.438 120.033 191.72 123.248C203.051 126.476 209.337 137.789 205.347 148.278C198.616 146.3 191.884 144.329 185.153 142.357Z" fill="#DBDBDB"/>
<path d="M185.153 142.357C189.161 147.726 193.127 153.094 197.178 158.481C191.616 162.206 184.58 163.292 178.147 161.405C166.951 158.136 161.078 146.895 164.928 136.473C168.742 126.039 180.438 120.039 191.72 123.254C203.051 126.482 209.337 137.795 205.347 148.284C198.616 146.3 191.884 144.329 185.153 142.357Z" fill="#DBDBDB"/>
<path d="M185.153 142.357C178.093 143.534 171.026 144.705 163.96 145.876C163.484 142.739 163.826 139.512 164.934 136.467C168.748 126.033 180.444 120.033 191.726 123.248C203.057 126.476 209.343 137.789 205.353 148.278C198.616 146.3 191.884 144.329 185.153 142.357Z" fill="#2D5BE3"/>
<path d="M162.955 104.801C173.78 107.798 184.526 110.794 195.211 113.797C195.022 114.574 194.833 115.356 194.632 116.133C183.99 113.13 173.292 110.127 162.516 107.13C162.668 106.354 162.815 105.577 162.955 104.801Z" fill="#DBDBDB"/>
<path d="M160.506 164.894C174.773 169.079 189.107 173.289 203.538 177.512C203.319 178.288 203.112 179.065 202.905 179.841C188.418 175.607 174.042 171.391 159.744 167.199C160 166.435 160.25 165.664 160.506 164.894Z" fill="#DBDBDB"/>
<path d="M158.642 170.723C173 174.927 187.45 179.156 202.021 183.402C201.839 184.178 201.662 184.961 201.491 185.738C186.859 181.479 172.36 177.245 157.953 173.035C158.179 172.264 158.41 171.494 158.642 170.723Z" fill="#DBDBDB"/>
<path d="M156.973 176.559C171.453 180.787 186.043 185.034 200.773 189.305C200.626 190.087 200.492 190.864 200.364 191.646C185.561 187.363 170.911 183.111 156.376 178.877C156.564 178.1 156.765 177.33 156.973 176.559Z" fill="#DBDBDB"/>
<path d="M152.075 164.954C150.345 164.445 148.615 163.941 146.885 163.438C147.14 162.667 147.408 161.903 147.67 161.139C149.394 161.642 151.124 162.152 152.848 162.655C152.586 163.42 152.331 164.184 152.075 164.954Z" fill="#2D5BE3"/>
<path d="M150.229 170.778C148.487 170.268 146.744 169.759 145.002 169.249C145.24 168.479 145.483 167.715 145.727 166.944C147.463 167.454 149.199 167.957 150.936 168.467C150.698 169.237 150.46 170.008 150.229 170.778Z" fill="#455A64"/>
<path d="M148.578 176.608C146.818 176.098 145.063 175.583 143.309 175.073C143.516 174.303 143.735 173.532 143.954 172.762C145.703 173.271 147.451 173.781 149.206 174.29C148.992 175.067 148.779 175.837 148.578 176.608Z" fill="#DBDBDB"/>
<path d="M210.142 241.032H73.5151L62.9763 150.589H199.603L210.142 241.032Z" fill="#2D5BE3"/>
<path d="M110.157 141.223H61.8858L62.9762 150.589H114.025L110.157 141.223Z" fill="#2D5BE3"/>
</g>
</svg>
