<svg width="285" height="218" viewBox="0 0 285 218" fill="none" xmlns="http://www.w3.org/2000/svg">
<mask id="mask0_7_846" style="mask-type:alpha" maskUnits="userSpaceOnUse" x="0" y="0" width="285" height="218">
<path d="M0 20C0 8.9543 8.95431 0 20 0H265C276.046 0 285 8.95431 285 20V98C285 164.274 231.274 218 165 218H120C53.7258 218 0 164.274 0 98V20Z" fill="#E8F3FF"/>
</mask>
<g mask="url(#mask0_7_846)">
<rect width="285" height="370" rx="20" fill="#E8F3FF"/>
<path d="M20.5638 271.666H77.6627C81.2868 271.666 84.2265 268.727 84.2265 265.104V132.439C84.2265 128.816 81.2868 125.877 77.6627 125.877H28.4264C20.4588 125.877 14 132.334 14 140.299V265.104C14 268.727 16.9397 271.666 20.5638 271.666Z" fill="#2D5BE3"/>
<path d="M72.8682 271.666H175.214C178.737 271.666 181.591 268.813 181.591 265.291V125.877H72.8682V271.666Z" fill="#849FFF"/>
<path d="M34.4456 125.876L145.956 125.876V119.073L34.4456 119.073V125.876Z" fill="#1F47BE"/>
<path d="M91.8721 215.083H168.596V162.389H91.8721V215.083Z" fill="#2D5BE3"/>
<path d="M27.1811 138.372H66.2373V135.596H27.1811V138.372Z" fill="#1F47BE"/>
<path d="M27.1811 145.162H66.2373V142.386H27.1811V145.162Z" fill="#1F47BE"/>
<path d="M49.5682 119.07H171.531C171.531 111.747 165.594 105.81 158.268 105.81H49.5682V119.07Z" fill="#849FFF"/>
<path d="M20.8243 119.07H84.2304C84.2304 111.747 78.2926 105.81 70.9667 105.81H34.088C26.7621 105.81 20.8243 111.747 20.8243 119.07Z" fill="#2D5BE3"/>
<path d="M179.04 125.877L189.065 144.898C190.589 147.79 189.481 150.135 186.588 150.135H103.047C100.154 150.135 96.5724 147.79 95.0481 144.898L85.0236 125.877H179.04Z" fill="#1F47BE"/>
<path d="M107.406 150.135H190.943C193.836 150.135 194.944 147.79 193.42 144.898L183.395 125.877H89.3787L99.4032 144.898C100.931 147.79 104.513 150.135 107.406 150.135Z" fill="#2D5BE3"/>
<path d="M109.992 142.97H134.925L128.334 130.468H103.401L109.992 142.97Z" fill="#0B1A3B"/>
<path d="M162.059 133.392C162.572 134.367 163.781 135.156 164.757 135.156C165.733 135.156 166.107 134.367 165.593 133.392C165.08 132.416 163.871 131.627 162.895 131.627C161.919 131.627 161.545 132.416 162.059 133.392Z" fill="#163560"/>
<path d="M152.404 133.392C152.917 134.367 154.126 135.156 155.102 135.156C156.078 135.156 156.452 134.367 155.938 133.392C155.425 132.416 154.216 131.627 153.24 131.627C152.264 131.627 151.886 132.416 152.404 133.392Z" fill="#163560"/>
<path d="M142.391 133.392C142.904 134.367 144.113 135.156 145.089 135.156C146.065 135.156 146.439 134.367 145.925 133.392C145.412 132.416 144.203 131.627 143.227 131.627C142.251 131.627 141.877 132.416 142.391 133.392Z" fill="#163560"/>
<path d="M165.846 140.575C166.359 141.551 167.569 142.34 168.545 142.34C169.521 142.34 169.894 141.551 169.381 140.575C168.867 139.6 167.658 138.811 166.682 138.811C165.706 138.811 165.333 139.6 165.846 140.575Z" fill="#163560"/>
<path d="M156.187 140.575C156.7 141.551 157.91 142.34 158.886 142.34C159.862 142.34 160.235 141.551 159.722 140.575C159.208 139.6 157.999 138.811 157.023 138.811C156.047 138.811 155.674 139.6 156.187 140.575Z" fill="#163560"/>
<path d="M146.178 140.575C146.691 141.551 147.901 142.34 148.877 142.34C149.853 142.34 150.226 141.551 149.713 140.575C149.199 139.6 147.99 138.811 147.014 138.811C146.038 138.811 145.665 139.6 146.178 140.575Z" fill="#163560"/>
<path d="M179.483 130.76C179.728 131.222 180.304 131.599 180.766 131.599C181.229 131.599 181.408 131.222 181.163 130.76C180.918 130.297 180.346 129.92 179.88 129.92C179.417 129.92 179.238 130.297 179.483 130.76Z" fill="#163560"/>
<path d="M174.895 130.76C175.14 131.222 175.711 131.599 176.178 131.599C176.641 131.599 176.82 131.222 176.575 130.76C176.33 130.297 175.754 129.92 175.291 129.92C174.825 129.92 174.65 130.297 174.895 130.76Z" fill="#163560"/>
<path d="M170.135 130.76C170.38 131.222 170.952 131.599 171.418 131.599C171.881 131.599 172.06 131.222 171.815 130.76C171.57 130.297 170.998 129.92 170.532 129.92C170.069 129.92 169.89 130.297 170.135 130.76Z" fill="#163560"/>
<path d="M181.284 134.173C181.529 134.635 182.104 135.013 182.567 135.013C183.029 135.013 183.208 134.635 182.963 134.173C182.718 133.71 182.147 133.333 181.68 133.333C181.217 133.333 181.039 133.71 181.284 134.173Z" fill="#163560"/>
<path d="M176.691 134.173C176.936 134.635 177.508 135.013 177.974 135.013C178.437 135.013 178.616 134.635 178.371 134.173C178.126 133.71 177.551 133.333 177.088 133.333C176.625 133.333 176.446 133.71 176.691 134.173Z" fill="#163560"/>
<path d="M171.936 134.173C172.181 134.635 172.752 135.013 173.219 135.013C173.682 135.013 173.86 134.635 173.615 134.173C173.371 133.71 172.799 133.333 172.332 133.333C171.87 133.333 171.691 133.71 171.936 134.173Z" fill="#163560"/>
<path d="M162.199 177.109H102.573C101.433 177.109 100.512 176.188 100.512 175.049C100.512 173.91 101.433 172.988 102.573 172.988H162.199C163.338 172.988 164.26 173.91 164.26 175.049C164.264 176.188 163.338 177.109 162.199 177.109Z" fill="#849FFF"/>
<path d="M162.199 186.625H102.573C101.433 186.625 100.512 185.7 100.512 184.565C100.512 183.426 101.433 182.501 102.573 182.501H162.199C163.338 182.501 164.26 183.426 164.26 184.565C164.264 185.704 163.338 186.625 162.199 186.625Z" fill="#849FFF"/>
<path d="M227.635 30.6517C222.549 28.9607 219.026 31.0948 219.026 31.0948C204.374 31.6974 202.849 49.1323 203.965 54.8701C205.077 60.6079 206.726 66.6994 201.496 75.2167C198.125 80.7096 197.452 84.7175 198.44 87.6253C199.26 90.0432 201.228 91.7031 203.751 92.8305C204.521 93.1764 205.346 93.4719 206.205 93.7207C207.978 94.2416 209.895 94.572 211.812 94.7742C218.625 95.4972 225.403 94.5876 225.403 94.5876C224.271 86.4979 228.393 82.8321 233.055 81.4171C234.7 80.9195 236.407 80.7018 237.978 80.6707C239.273 80.6396 240.475 80.7368 241.462 80.904C243.165 81.1955 244.239 81.7009 244.091 82.144C246.887 82.3617 249.064 82.0468 250.709 81.2966C265.334 74.6802 238.036 34.1037 227.635 30.6517Z" fill="#081535"/>
<path d="M212.438 105.554C212.438 105.554 211.046 108.31 208.523 111.474C205.478 115.284 189.508 106.242 190.88 105.554C192.257 104.866 200.283 81.7475 202.192 78.8436C204.105 75.9398 210.619 74.4315 210.619 74.4315L212.438 105.554Z" fill="#2D5BE3"/>
<path d="M246.68 140.929C241.583 129.5 238.464 126.223 239.059 122.674C239.502 120.034 237.71 73.4518 237.71 73.4518C237.107 73.2652 235.894 73.0981 235.229 72.9503C233.137 72.4877 231.406 71.0183 230.687 69.0008C229.82 66.5711 229.132 62.987 229.147 58.4893L228.494 58.6175L217.517 60.7906C217.517 60.7906 217.766 64.2426 217.773 67.4963C217.773 67.5235 217.773 67.5508 217.773 67.578C217.785 70.4041 215.93 72.8998 213.216 73.6812C211.828 74.0816 210.622 74.4237 210.622 74.4237C210.622 74.4237 206.59 85.9303 205.82 97.748C205.05 109.57 213.15 114.705 205.758 138.325C198.214 162.457 249.496 147.242 246.68 140.929Z" fill="#EF8F6A"/>
<path d="M217.517 60.7945C217.517 60.7945 217.766 64.2465 217.773 67.5041C223.917 67.3292 227.164 61.7275 228.494 58.6215L217.517 60.7945Z" fill="#E27452"/>
<path d="M216.852 65.3855C216.852 65.3855 231.243 63.3368 229.832 54.3958C228.416 45.4548 229.322 39.1689 220.072 40.1019C210.821 41.031 209.58 44.724 209.328 47.8261C209.075 50.9205 213.072 65.6848 216.852 65.3855Z" fill="#EF8F6A"/>
<path d="M213.5 40.9222C213.5 40.9222 219.099 50.7845 225.379 51.3754C231.659 51.9662 234.016 49.9331 234.016 49.9331C234.016 49.9331 228.805 46.9943 226.822 40.7356C226.822 40.7317 215.67 35.4565 213.5 40.9222Z" fill="#081535"/>
<path d="M214.608 41.618C214.608 41.618 211.867 43.173 211.007 45.486C210.164 47.7523 209.604 50.664 210.373 54.0032C210.373 54.0032 206.275 47.348 208.962 42.7842C211.808 37.9444 214.608 41.618 214.608 41.618Z" fill="#081535"/>
<path d="M248.08 94.0589C248.08 94.0589 248.45 99.2602 248.08 105.503C247.835 109.64 243.647 115.183 243.053 116.555C241.563 119.996 239.88 120.555 239.88 120.555L226.872 123.743L222.3 124.863L207.881 120.555C207.881 120.555 201.313 102.226 203.95 91.9092C206.586 81.592 210.615 74.4276 210.615 74.4276C210.615 74.4276 222.381 85.9459 237.702 73.4518L248.08 94.0589Z" fill="#2D5BE3"/>
<path d="M249.321 105.651C249.076 109.791 243.651 115.187 243.056 116.559C241.567 119.999 239.883 120.559 239.883 120.559L226.876 123.747L223.408 118.857C223.408 118.857 244.46 113.002 240.474 94.4476L249.321 105.651Z" fill="#1F47BE"/>
<path d="M208.803 123.339C208.803 123.339 201.659 145.559 201.204 153.128C200.746 160.693 214.857 260.606 215.425 264.093C215.961 267.378 220.04 269.473 220.04 269.473C220.04 269.473 221.919 270.581 224.598 269.823C228.315 268.774 229.489 267.518 229.489 267.518C229.489 267.518 235.046 196.262 231.609 170.808C228.171 145.353 228.128 123.343 228.128 123.343H208.803V123.339Z" fill="#081535"/>
<path d="M239.059 122.674C239.059 122.674 249.951 137.287 250.97 147.164C251.984 157.042 252.564 191.737 254.726 201.366C256.888 210.995 264.84 229.527 264.84 259.561C264.84 259.561 264.015 261.283 261.461 262.2C260.644 262.492 259.551 262.779 258.49 263.02C256.386 263.502 254.228 262.476 253.268 260.54C247.894 249.722 230.776 214.832 229.898 207.59C229.276 202.466 223.87 168.545 212.081 148.642C209.25 143.864 213.819 124.859 213.819 124.859L239.059 122.674Z" fill="#212350"/>
<path d="M207.663 119.906C207.663 119.906 210.529 122.172 216.226 122.289C223.027 122.425 239.883 120.555 239.883 120.555C239.883 120.555 240.634 122.647 240.603 124.855C240.603 124.855 220.017 130.044 208.087 125.613C208.087 125.613 206.547 122.721 207.663 119.906Z" fill="#1F47BE"/>
<path d="M217.26 122.841C216.755 122.81 216.245 122.717 215.751 122.577C215.911 122.705 216.055 122.861 216.171 123.032C216.245 123.129 216.307 123.23 216.358 123.339H217.474C217.416 123.164 217.342 123 217.26 122.841ZM217.692 124.528C217.684 124.143 217.618 123.774 217.509 123.432C217.509 123.428 217.509 123.428 217.509 123.428C217.497 123.397 217.486 123.366 217.474 123.339C217.416 123.164 217.342 123 217.26 122.841C217.155 122.647 217.038 122.464 216.906 122.297C216.335 121.578 215.51 121.127 214.593 121.127C214.11 121.127 213.655 121.251 213.251 121.473C213.037 121.589 212.835 121.733 212.652 121.904C212.629 121.92 212.609 121.939 212.59 121.963C212.205 122.328 211.902 122.798 211.711 123.339C211.567 123.739 211.49 124.178 211.49 124.637C211.49 125.415 211.711 126.13 212.088 126.709C212.372 127.148 212.745 127.51 213.177 127.763C213.601 128.011 214.083 128.151 214.593 128.151C215.374 128.151 216.086 127.825 216.63 127.284C217.283 126.639 217.696 125.694 217.696 124.637C217.696 124.602 217.696 124.563 217.692 124.528ZM216.669 124.637C216.669 125.947 215.817 127.024 214.74 127.113C214.694 127.117 214.643 127.121 214.593 127.121C214.39 127.121 214.196 127.086 214.009 127.02C213.791 126.946 213.589 126.83 213.41 126.674C212.87 126.227 212.516 125.481 212.516 124.637C212.516 124.163 212.629 123.716 212.827 123.339C213.057 122.884 213.41 122.526 213.826 122.328C213.994 122.25 214.173 122.196 214.355 122.169C214.425 122.161 214.495 122.153 214.569 122.153H214.593C214.775 122.153 214.95 122.18 215.117 122.235C215.347 122.305 215.561 122.425 215.751 122.577C215.911 122.705 216.055 122.861 216.171 123.032C216.245 123.129 216.307 123.23 216.358 123.339C216.552 123.712 216.665 124.151 216.669 124.618V124.637Z" fill="white"/>
<path d="M229.466 134.538L198.521 134.826L183.294 99.0541L214.239 98.7665L229.466 134.538Z" fill="#0B1A3B"/>
<path d="M225.418 118.371L223.151 115.583C223.151 115.583 221.615 114.215 220.503 113.982C219.391 113.749 217.038 112.392 216.809 112.777C216.58 113.158 218.617 115.887 218.617 115.887L218.722 115.902C216.385 117.659 210.486 116.108 209.759 116.823C208.876 117.694 210.972 119.568 212.1 120.625C213.224 121.679 216.443 123.436 218.952 122.658C220.787 122.087 223.672 121.508 223.672 121.508L225.418 118.371Z" fill="#EF8F6A"/>
<path d="M185.623 105.348C185.623 105.348 187.567 103.14 188.804 104.197C190.041 105.258 188.481 110.471 187.303 109.939C186.125 109.414 184.947 105.997 185.623 105.348Z" fill="#EF8F6A"/>
<path d="M237.71 73.4518C237.71 73.4518 248.03 74.1749 251.984 83.7884C255.939 93.4019 263.277 113.896 263.277 116.61C263.277 119.323 255.181 129.314 223.497 121.589C223.497 121.589 222.416 118.549 224.535 117.014C224.535 117.014 246.622 109.923 246.587 108.512C246.517 105.845 243.601 103.54 231.263 91.2017C227.903 87.8468 237.71 73.4518 237.71 73.4518Z" fill="#2D5BE3"/>
</g>
</svg>
