<svg width="285" height="218" viewBox="0 0 285 218" fill="none" xmlns="http://www.w3.org/2000/svg">
<mask id="mask0_6_455" style="mask-type:alpha" maskUnits="userSpaceOnUse" x="0" y="0" width="285" height="218">
<path d="M0 20C0 8.9543 8.95431 0 20 0H265C276.046 0 285 8.95431 285 20V98C285 164.274 231.274 218 165 218H120C53.7258 218 0 164.274 0 98V20Z" fill="#E8F3FF"/>
</mask>
<g mask="url(#mask0_6_455)">
<rect width="285" height="370" rx="20" fill="#E8F3FF"/>
<path d="M219.469 211.462C218.751 211.927 218.027 212.385 217.299 212.833C215.72 213.802 214.112 214.732 212.468 215.619C211.211 216.301 209.937 216.961 208.644 217.597C206.688 218.559 204.69 219.468 202.655 220.316C202.318 220.462 201.977 220.604 201.633 220.742C201.04 220.984 200.444 221.221 199.84 221.452H162.173C161.815 221.452 161.47 221.363 161.172 221.207C160.537 220.874 160.082 220.235 160.011 219.489L160.004 219.39V213.521C160.065 212.378 161.02 211.459 162.177 211.459H219.469V211.462Z" fill="#849FFF"/>
<path d="M202.655 211.462V220.316C202.318 220.462 201.977 220.604 201.633 220.742V211.462H202.655Z" fill="#D5DEF9"/>
<path d="M194.043 211.462H193.02V221.452H194.043V211.462Z" fill="#D5DEF9"/>
<path d="M232.547 201.469C232.54 201.476 232.537 201.479 232.529 201.486C232.185 201.795 231.834 202.108 231.482 202.413C231.145 202.711 230.804 203.002 230.46 203.29C228.614 204.863 226.714 206.368 224.762 207.806C224.425 208.058 224.084 208.306 223.739 208.551C222.344 209.556 220.917 210.529 219.469 211.462H164.328C163.167 211.462 162.216 210.546 162.156 209.4C162.156 209.364 162.152 209.325 162.152 209.29V203.648C162.152 203.609 162.156 203.574 162.156 203.538C162.209 202.48 163.029 201.618 164.069 201.49C164.154 201.479 164.24 201.472 164.328 201.472H232.547V201.469Z" fill="#849FFF"/>
<path d="M231.479 201.469V202.409C231.141 202.708 230.801 202.999 230.456 203.286V201.469H231.479Z" fill="#D5DEF9"/>
<path d="M224.758 201.469V207.806C224.421 208.058 224.08 208.306 223.736 208.551V201.469H224.758Z" fill="#D5DEF9"/>
<path d="M214.456 201.469H213.433V211.459H214.456V201.469Z" fill="#D5DEF9"/>
<path d="M204.81 201.469H203.788V211.459H204.81V201.469Z" fill="#D5DEF9"/>
<path d="M196.194 201.469H195.172V211.459H196.194V201.469Z" fill="#D5DEF9"/>
<path d="M238.831 191.496V195.355C239.605 194.546 240.361 193.726 241.103 192.888V191.496H238.831ZM238.831 191.496V195.355C239.605 194.546 240.361 193.726 241.103 192.888C241.447 192.505 241.788 192.121 242.125 191.731C242.175 191.677 242.221 191.621 242.267 191.567C242.289 191.543 242.31 191.521 242.328 191.496H238.831ZM238.831 191.496V195.355C239.605 194.546 240.361 193.726 241.103 192.888C241.447 192.505 241.788 192.121 242.125 191.731C242.175 191.677 242.221 191.621 242.267 191.567C242.289 191.543 242.31 191.521 242.328 191.496H238.831ZM238.831 191.496V195.355C239.605 194.546 240.361 193.726 241.103 192.888C241.447 192.505 241.788 192.121 242.125 191.731C242.175 191.677 242.221 191.621 242.267 191.567C242.289 191.543 242.31 191.521 242.328 191.496H238.831ZM238.831 191.496V195.355C239.605 194.546 240.361 193.726 241.103 192.888C241.447 192.505 241.788 192.121 242.125 191.731C242.175 191.677 242.221 191.621 242.267 191.567C242.289 191.543 242.31 191.521 242.328 191.496H238.831ZM238.831 191.496V195.355C239.605 194.546 240.361 193.726 241.103 192.888C241.447 192.505 241.788 192.121 242.125 191.731C242.175 191.677 242.221 191.621 242.267 191.567C242.289 191.543 242.31 191.521 242.328 191.496H238.831ZM238.831 191.496V195.355C239.605 194.546 240.361 193.726 241.103 192.888V191.496H238.831ZM157.718 191.496C157.558 191.496 157.398 191.514 157.246 191.55C157.224 191.553 157.203 191.557 157.182 191.564C156.362 191.773 155.726 192.451 155.577 193.296C155.567 193.353 155.559 193.41 155.556 193.47C155.552 193.499 155.549 193.531 155.549 193.559C155.549 193.598 155.545 193.634 155.545 193.669V199.31C155.545 199.349 155.549 199.385 155.549 199.42C155.552 199.474 155.556 199.52 155.563 199.569C155.577 199.669 155.595 199.765 155.62 199.86C155.865 200.794 156.717 201.483 157.721 201.483H232.529C232.537 201.476 232.544 201.472 232.547 201.465C233.154 200.922 233.758 200.368 234.351 199.807C234.695 199.484 235.036 199.161 235.373 198.831C236.197 198.043 237.013 197.233 237.808 196.41C238.153 196.058 238.494 195.703 238.831 195.348C239.605 194.539 240.361 193.719 241.103 192.881C241.447 192.498 241.788 192.114 242.125 191.724C242.175 191.67 242.221 191.614 242.267 191.56C242.289 191.535 242.31 191.514 242.328 191.489H157.718V191.496Z" fill="#849FFF"/>
<path d="M205.634 201.487H157.487C156.454 201.487 155.602 200.568 155.549 199.424C155.549 199.385 155.545 199.35 155.545 199.314V193.673C155.545 193.634 155.545 193.599 155.549 193.56C155.549 193.528 155.552 193.499 155.556 193.467C155.634 192.527 156.255 191.753 157.061 191.55C157.09 191.543 157.118 191.536 157.143 191.533C157.256 191.511 157.37 191.497 157.487 191.497H199.723C199.726 191.522 199.734 191.543 199.741 191.568C200.422 194.497 201.995 198.516 205.616 201.473C205.623 201.476 205.63 201.48 205.634 201.487Z" fill="#D5DEF9"/>
<path d="M238.831 191.496V195.355C238.497 195.71 238.156 196.065 237.808 196.417V191.496H238.831Z" fill="#D5DEF9"/>
<path d="M235.377 191.496V198.838C235.039 199.168 234.698 199.491 234.354 199.814V191.5H235.377V191.496Z" fill="#D5DEF9"/>
<path d="M231.227 191.493H230.204V201.483H231.227V191.493Z" fill="#D5DEF9"/>
<path d="M224.872 191.493H223.849V201.483H224.872V191.493Z" fill="#D5DEF9"/>
<path d="M218.151 191.493H217.129V201.483H218.151V191.493Z" fill="#D5DEF9"/>
<path d="M207.849 191.493H206.827V201.483H207.849V191.493Z" fill="#D5DEF9"/>
<path d="M198.203 191.493H197.181V201.483H198.203V191.493Z" fill="#D5DEF9"/>
<path d="M189.587 191.493H188.565V201.483H189.587V191.493Z" fill="#D5DEF9"/>
<path d="M242.122 191.496V191.731C241.788 192.121 241.447 192.505 241.099 192.888V191.496H242.122Z" fill="#D5DEF9"/>
<path d="M242.264 181.822V181.574H241.934V191.496H242.324C242.583 191.202 242.835 190.907 243.088 190.605C243.432 190.201 243.773 189.792 244.11 189.381V181.822H242.264ZM249.208 182.536C249.148 182.447 249.084 182.366 249.013 182.287C249.009 182.28 248.998 182.273 248.995 182.27C248.988 182.263 248.984 182.255 248.981 182.252C248.963 182.234 248.945 182.216 248.927 182.199C248.903 182.177 248.881 182.156 248.856 182.135C248.832 182.113 248.81 182.092 248.785 182.071C248.736 182.032 248.686 181.993 248.629 181.954C248.558 181.904 248.484 181.861 248.409 181.822H248.406C248.37 181.805 248.335 181.783 248.299 181.769C248.281 181.762 248.26 181.751 248.246 181.744C248.228 181.737 248.207 181.73 248.189 181.723C248.061 181.67 247.926 181.634 247.791 181.613C247.781 181.609 247.77 181.609 247.763 181.606C247.756 181.602 247.745 181.599 247.735 181.599C247.72 181.599 247.706 181.595 247.692 181.592C247.681 181.588 247.664 181.585 247.649 181.585C247.642 181.585 247.632 181.581 247.621 181.581H247.614C247.6 181.577 247.586 181.577 247.571 181.577C247.518 181.57 247.461 181.57 247.404 181.57H157.53C156.369 181.57 155.418 182.486 155.357 183.633C155.357 183.668 155.354 183.707 155.354 183.743V189.384C155.354 189.423 155.357 189.459 155.357 189.494C155.361 189.558 155.364 189.626 155.375 189.689C155.51 190.612 156.227 191.354 157.143 191.518C157.178 191.525 157.214 191.532 157.249 191.535C157.342 191.546 157.438 191.553 157.533 191.553H242.264C242.285 191.528 242.306 191.507 242.324 191.482C242.583 191.188 242.835 190.893 243.088 190.591C243.432 190.186 243.773 189.778 244.11 189.366C244.476 188.93 244.834 188.482 245.189 188.035C245.537 187.602 245.878 187.169 246.212 186.732C246.403 186.494 246.588 186.253 246.769 186.011C247.113 185.561 247.451 185.106 247.791 184.652C247.926 184.471 248.061 184.29 248.189 184.109C248.537 183.64 248.878 183.168 249.211 182.692C249.233 182.664 249.254 182.642 249.268 182.614C249.268 182.61 249.268 182.61 249.268 182.61C249.243 182.593 249.226 182.561 249.208 182.536ZM242.264 181.822V181.574H241.934V191.496H242.324C242.583 191.202 242.835 190.907 243.088 190.605C243.432 190.201 243.773 189.792 244.11 189.381V181.822H242.264Z" fill="#849FFF"/>
<path d="M205.446 191.564H157.299C157.26 191.564 157.221 191.564 157.186 191.561C157.143 191.557 157.104 191.554 157.062 191.547C156.135 191.419 155.407 190.556 155.361 189.502C155.361 189.463 155.358 189.427 155.358 189.392V183.751C155.358 183.715 155.358 183.676 155.361 183.641C155.414 182.497 156.266 181.578 157.299 181.578H199.535C199.553 181.66 199.574 181.741 199.595 181.823C200.295 184.716 201.86 188.604 205.364 191.497C205.389 191.518 205.418 191.543 205.446 191.564Z" fill="#D5DEF9"/>
<path d="M238.643 181.574H237.62V191.564H238.643V181.574Z" fill="#D5DEF9"/>
<path d="M235.185 181.574H234.162V191.564H235.185V181.574Z" fill="#D5DEF9"/>
<path d="M231.038 181.574H230.016V191.564H231.038V181.574Z" fill="#D5DEF9"/>
<path d="M224.684 181.574H223.661V191.564H224.684V181.574Z" fill="#D5DEF9"/>
<path d="M217.963 181.574H216.941V191.564H217.963V181.574Z" fill="#D5DEF9"/>
<path d="M207.661 181.574H206.638V191.564H207.661V181.574Z" fill="#D5DEF9"/>
<path d="M198.015 181.574H196.993V191.564H198.015V181.574Z" fill="#D5DEF9"/>
<path d="M189.399 181.575H188.377V191.565H189.399V181.575Z" fill="#D5DEF9"/>
<path d="M241.934 181.574H240.911V191.564H241.934V181.574Z" fill="#D5DEF9"/>
<path d="M244.106 181.574V189.381C243.773 189.792 243.432 190.201 243.084 190.605V181.574H244.106Z" fill="#D5DEF9"/>
<path d="M246.208 181.574V186.743C245.874 187.179 245.533 187.613 245.186 188.046V181.57H246.208V181.574Z" fill="#D5DEF9"/>
<path d="M247.788 181.609V184.663C247.451 185.12 247.11 185.575 246.765 186.022V181.574H247.401C247.458 181.574 247.511 181.577 247.568 181.581C247.585 181.581 247.596 181.581 247.61 181.585H247.617C247.625 181.585 247.635 181.588 247.646 181.588C247.66 181.588 247.674 181.592 247.688 181.595C247.703 181.599 247.717 181.602 247.731 181.602C247.738 181.602 247.749 181.602 247.759 181.606C247.767 181.606 247.777 181.606 247.788 181.609Z" fill="#D5DEF9"/>
<path d="M254.221 174.005V175.056C254.101 175.262 253.976 175.464 253.849 175.666C253.515 176.217 253.178 176.76 252.826 177.303C252.698 177.513 252.563 177.722 252.428 177.928C252.095 178.453 251.754 178.975 251.406 179.493C251.225 179.774 251.037 180.047 250.849 180.328C250.515 180.828 250.174 181.325 249.826 181.819V181.822H162.174C161.815 181.822 161.471 181.734 161.173 181.574C160.722 181.34 160.363 180.949 160.168 180.477C160.083 180.285 160.033 180.072 160.012 179.856L160.005 179.756V173.891C160.019 173.639 160.076 173.394 160.172 173.171C160.502 172.383 161.276 171.829 162.178 171.829H252.049C252.183 171.829 252.308 171.839 252.432 171.864C252.57 171.889 252.705 171.925 252.83 171.974C253.249 172.134 253.604 172.425 253.852 172.787C254.086 173.135 254.221 173.554 254.221 174.005Z" fill="#849FFF"/>
<path d="M210.089 181.82H161.939C161.616 181.82 161.314 181.731 161.044 181.575C160.476 181.241 160.072 180.602 160.008 179.856C160.004 179.824 160.001 179.793 160.001 179.761C160.001 179.725 159.997 179.686 159.997 179.651V174.006C159.997 173.97 159.997 173.931 160.001 173.896C160.054 172.753 160.906 171.833 161.939 171.833H204.175C204.832 174.695 206.337 178.621 209.791 181.578C209.89 181.656 209.99 181.738 210.089 181.82Z" fill="#D5DEF9"/>
<path d="M243.286 171.829H242.264V181.819H243.286V171.829Z" fill="#D5DEF9"/>
<path d="M239.829 171.829H238.806V181.819H239.829V171.829Z" fill="#D5DEF9"/>
<path d="M235.682 171.829H234.66V181.819H235.682V171.829Z" fill="#D5DEF9"/>
<path d="M229.327 171.829H228.305V181.819H229.327V171.829Z" fill="#D5DEF9"/>
<path d="M222.607 171.829H221.585V181.819H222.607V171.829Z" fill="#D5DEF9"/>
<path d="M212.305 171.829H211.282V181.819H212.305V171.829Z" fill="#D5DEF9"/>
<path d="M202.659 171.829H201.636V181.819H202.659V171.829Z" fill="#D5DEF9"/>
<path d="M194.043 171.829H193.02V181.819H194.043V171.829Z" fill="#D5DEF9"/>
<path d="M246.577 171.829H245.555V181.819H246.577V171.829Z" fill="#D5DEF9"/>
<path d="M248.754 171.829H247.731V181.819H248.754V171.829Z" fill="#D5DEF9"/>
<path d="M250.852 171.829V180.328C250.518 180.828 250.177 181.325 249.829 181.819V171.832H250.852V171.829Z" fill="#D5DEF9"/>
<path d="M252.431 171.864V177.928C252.098 178.453 251.757 178.975 251.409 179.493V171.829H252.048C252.179 171.829 252.304 171.839 252.431 171.864Z" fill="#D5DEF9"/>
<path d="M253.848 172.791V175.666C253.514 176.217 253.177 176.76 252.826 177.303V171.978C253.248 172.138 253.599 172.425 253.848 172.791Z" fill="#D5DEF9"/>
<path d="M260.948 162.499C260.696 163.042 260.437 163.578 260.171 164.114C260.039 164.388 259.908 164.658 259.773 164.927C259.439 165.605 259.099 166.276 258.751 166.944C258.57 167.302 258.381 167.661 258.193 168.016C257.86 168.659 257.515 169.298 257.171 169.926C256.823 170.565 256.468 171.2 256.109 171.829H169.519C168.358 171.829 167.403 170.913 167.346 169.766C167.342 169.731 167.342 169.692 167.342 169.656V164.015C167.342 163.976 167.342 163.94 167.346 163.901C167.399 162.843 168.219 161.981 169.259 161.853C169.345 161.842 169.43 161.835 169.519 161.835H247.841C247.845 161.839 247.848 161.835 247.848 161.835H259.39C259.521 161.835 259.649 161.849 259.773 161.871C259.908 161.896 260.043 161.935 260.171 161.981C260.21 161.999 260.245 162.009 260.284 162.031C260.313 162.041 260.338 162.055 260.366 162.073C260.441 162.109 260.515 162.151 260.586 162.201C260.614 162.219 260.646 162.24 260.675 162.265C260.685 162.272 260.693 162.279 260.703 162.286C260.728 162.304 260.749 162.322 260.771 162.339C260.838 162.389 260.895 162.442 260.948 162.499Z" fill="#849FFF"/>
<path d="M217.434 171.829H169.284C168.251 171.829 167.399 170.909 167.346 169.766C167.346 169.731 167.342 169.692 167.342 169.653V164.011C167.342 163.976 167.342 163.937 167.346 163.898C167.396 162.84 168.127 161.974 169.054 161.849C169.128 161.839 169.206 161.835 169.284 161.835H211.52C211.52 161.839 211.524 161.846 211.524 161.849C212.202 164.793 213.774 168.85 217.434 171.829Z" fill="#D5DEF9"/>
<path d="M250.631 161.839H249.609V171.829H250.631V161.839Z" fill="#D5DEF9"/>
<path d="M247.174 161.839H246.151V171.829H247.174V161.839Z" fill="#D5DEF9"/>
<path d="M243.027 161.839H242.005V171.829H243.027V161.839Z" fill="#D5DEF9"/>
<path d="M236.672 161.839H235.65V171.829H236.672V161.839Z" fill="#D5DEF9"/>
<path d="M229.952 161.839H228.93V171.829H229.952V161.839Z" fill="#D5DEF9"/>
<path d="M219.65 161.839H218.627V171.829H219.65V161.839Z" fill="#D5DEF9"/>
<path d="M210 161.839H208.978V171.829H210V161.839Z" fill="#D5DEF9"/>
<path d="M201.388 161.84H200.365V171.83H201.388V161.84Z" fill="#D5DEF9"/>
<path d="M253.922 161.839H252.9V171.829H253.922V161.839Z" fill="#D5DEF9"/>
<path d="M256.099 161.839H255.076V171.829H256.099V161.839Z" fill="#D5DEF9"/>
<path d="M258.197 161.839V168.012C257.863 168.655 257.519 169.294 257.174 169.922V161.835H258.197V161.839Z" fill="#D5DEF9"/>
<path d="M259.777 161.871V164.924C259.443 165.602 259.102 166.273 258.754 166.94V161.835H259.39C259.525 161.835 259.652 161.849 259.777 161.871Z" fill="#D5DEF9"/>
<path d="M260.948 162.499C260.696 163.042 260.437 163.578 260.171 164.114V161.984C260.21 162.002 260.245 162.013 260.284 162.034C260.313 162.045 260.338 162.059 260.366 162.077C260.44 162.112 260.515 162.155 260.586 162.204C260.614 162.222 260.646 162.244 260.675 162.268C260.685 162.275 260.693 162.283 260.703 162.29C260.728 162.307 260.749 162.325 260.771 162.343C260.838 162.389 260.895 162.442 260.948 162.499Z" fill="#D5DEF9"/>
<path d="M249.769 154.036V159.677C249.769 160.128 249.63 160.543 249.396 160.891C249.148 161.257 248.792 161.544 248.377 161.704C248.249 161.754 248.114 161.793 247.98 161.817C247.937 161.825 247.894 161.832 247.852 161.835C247.82 161.839 247.784 161.842 247.749 161.846C247.731 161.846 247.717 161.849 247.699 161.849C247.664 161.849 247.628 161.853 247.593 161.853H157.718C156.561 161.853 155.606 160.934 155.545 159.79C155.545 159.751 155.542 159.716 155.542 159.677V154.036C155.542 153.997 155.542 153.961 155.545 153.922C155.606 152.779 156.557 151.859 157.718 151.859H247.593C247.632 151.859 247.671 151.859 247.71 151.863C247.802 151.867 247.891 151.877 247.976 151.895C248.114 151.92 248.246 151.955 248.374 152.005C248.437 152.03 248.501 152.058 248.562 152.09C248.601 152.108 248.636 152.129 248.672 152.151C248.675 152.151 248.679 152.154 248.682 152.158C248.722 152.179 248.757 152.204 248.793 152.225C248.8 152.229 248.807 152.232 248.81 152.236C248.846 152.257 248.878 152.282 248.91 152.307C248.988 152.364 249.059 152.427 249.126 152.495C249.148 152.516 249.169 152.538 249.187 152.559C249.19 152.562 249.194 152.566 249.197 152.569C249.211 152.584 249.222 152.594 249.236 152.612C249.24 152.616 249.24 152.619 249.243 152.619C249.265 152.644 249.286 152.672 249.307 152.697C249.336 152.736 249.368 152.775 249.392 152.814C249.63 153.169 249.769 153.588 249.769 154.036Z" fill="#849FFF"/>
<path d="M205.635 161.853H157.488C156.455 161.853 155.603 160.934 155.55 159.79C155.55 159.751 155.546 159.716 155.546 159.677V154.036C155.546 153.997 155.546 153.961 155.55 153.922C155.603 152.779 156.455 151.859 157.488 151.859H199.724C199.741 151.934 199.759 152.012 199.781 152.09C200.48 155.005 202.06 158.931 205.62 161.835C205.624 161.842 205.631 161.849 205.635 161.853Z" fill="#D5DEF9"/>
<path d="M238.831 151.863H237.808V161.853H238.831V151.863Z" fill="#D5DEF9"/>
<path d="M235.373 151.863H234.351V161.853H235.373V151.863Z" fill="#D5DEF9"/>
<path d="M231.227 151.863H230.204V161.853H231.227V151.863Z" fill="#D5DEF9"/>
<path d="M224.872 151.863H223.849V161.853H224.872V151.863Z" fill="#D5DEF9"/>
<path d="M218.151 151.863H217.129V161.853H218.151V151.863Z" fill="#D5DEF9"/>
<path d="M207.849 151.863H206.827V161.853H207.849V151.863Z" fill="#D5DEF9"/>
<path d="M198.203 151.863H197.181V161.853H198.203V151.863Z" fill="#D5DEF9"/>
<path d="M189.587 151.863H188.565V161.853H189.587V151.863Z" fill="#D5DEF9"/>
<path d="M242.122 151.863H241.099V161.853H242.122V151.863Z" fill="#D5DEF9"/>
<path d="M244.298 151.863H243.276V161.853H244.298V151.863Z" fill="#D5DEF9"/>
<path d="M246.396 151.863H245.374V161.853H246.396V151.863Z" fill="#D5DEF9"/>
<path d="M247.976 151.899V161.821C247.852 161.842 247.724 161.857 247.593 161.857H246.953V151.867H247.593C247.724 151.863 247.852 151.874 247.976 151.899Z" fill="#D5DEF9"/>
<path d="M249.396 152.822V160.891C249.147 161.257 248.792 161.544 248.377 161.704V152.005C248.792 152.172 249.147 152.456 249.396 152.822Z" fill="#D5DEF9"/>
<path d="M256.376 144.277V149.919C256.376 150.369 256.237 150.785 256.003 151.133C255.754 151.498 255.399 151.786 254.98 151.946C254.853 151.995 254.721 152.034 254.583 152.056C254.459 152.077 254.331 152.091 254.199 152.091H164.328C163.98 152.091 163.65 152.01 163.356 151.86C162.702 151.534 162.23 150.881 162.159 150.117C162.156 150.089 162.156 150.057 162.152 150.029C162.152 149.993 162.149 149.954 162.149 149.919V144.277C162.149 144.242 162.149 144.203 162.152 144.167C162.205 143.109 163.025 142.243 164.066 142.119C164.151 142.108 164.236 142.105 164.321 142.105H254.196C254.327 142.105 254.455 142.115 254.579 142.14C254.718 142.165 254.849 142.201 254.977 142.254C255.396 142.414 255.751 142.701 255.999 143.067C256.237 143.411 256.376 143.827 256.376 144.277Z" fill="#849FFF"/>
<path d="M212.241 152.094H164.094C163.782 152.094 163.487 152.012 163.228 151.863C162.642 151.536 162.227 150.883 162.163 150.12C162.159 150.092 162.159 150.06 162.156 150.031C162.156 149.996 162.152 149.957 162.152 149.921V144.28C162.152 144.245 162.152 144.205 162.156 144.17C162.202 143.112 162.937 142.246 163.863 142.122C163.938 142.111 164.016 142.107 164.094 142.107H206.33C206.33 142.111 206.333 142.118 206.333 142.122C206.994 144.987 208.502 148.913 211.967 151.867C212.056 151.941 212.148 152.019 212.241 152.094Z" fill="#D5DEF9"/>
<path d="M245.441 142.104H244.419V152.094H245.441V142.104Z" fill="#D5DEF9"/>
<path d="M241.983 142.104H240.961V152.094H241.983V142.104Z" fill="#D5DEF9"/>
<path d="M237.837 142.104H236.815V152.094H237.837V142.104Z" fill="#D5DEF9"/>
<path d="M231.479 142.104H230.456V152.094H231.479V142.104Z" fill="#D5DEF9"/>
<path d="M224.758 142.104H223.736V152.094H224.758V142.104Z" fill="#D5DEF9"/>
<path d="M214.456 142.104H213.433V152.094H214.456V142.104Z" fill="#D5DEF9"/>
<path d="M204.81 142.104H203.788V152.094H204.81V142.104Z" fill="#D5DEF9"/>
<path d="M196.194 142.105H195.172V152.095H196.194V142.105Z" fill="#D5DEF9"/>
<path d="M248.732 142.104H247.71V152.094H248.732V142.104Z" fill="#D5DEF9"/>
<path d="M250.905 142.104H249.883V152.094H250.905V142.104Z" fill="#D5DEF9"/>
<path d="M253.007 142.104H251.984V152.094H253.007V142.104Z" fill="#D5DEF9"/>
<path d="M254.583 142.136V152.058C254.459 152.08 254.331 152.094 254.199 152.094H253.56V142.104H254.199C254.331 142.1 254.459 142.114 254.583 142.136Z" fill="#D5DEF9"/>
<path d="M256.003 143.062V151.132C255.754 151.497 255.399 151.785 254.98 151.945V142.246C255.399 142.409 255.754 142.697 256.003 143.062Z" fill="#D5DEF9"/>
<path d="M249.769 134.301V139.942C249.769 140.393 249.63 140.808 249.396 141.156C249.148 141.522 248.792 141.809 248.377 141.969C248.249 142.019 248.114 142.058 247.98 142.079C247.937 142.086 247.894 142.093 247.852 142.097C247.83 142.1 247.806 142.1 247.781 142.104C247.759 142.107 247.735 142.107 247.71 142.107C247.671 142.111 247.632 142.111 247.593 142.111H157.718C156.561 142.111 155.606 141.191 155.545 140.048C155.545 140.009 155.542 139.974 155.542 139.935V134.294C155.542 134.258 155.542 134.219 155.545 134.183C155.606 133.04 156.557 132.121 157.718 132.121H247.593C247.724 132.121 247.852 132.132 247.976 132.156C248.114 132.181 248.246 132.217 248.374 132.27C248.789 132.43 249.148 132.717 249.392 133.083C249.63 133.434 249.769 133.85 249.769 134.301Z" fill="#849FFF"/>
<path d="M205.634 142.119H157.488C156.454 142.119 155.602 141.199 155.549 140.056C155.549 140.017 155.546 139.981 155.546 139.942V134.301C155.546 134.266 155.546 134.227 155.549 134.191C155.602 133.048 156.454 132.129 157.488 132.129H199.723C200.398 135.065 201.963 139.122 205.616 142.104C205.624 142.108 205.631 142.115 205.634 142.119Z" fill="#D5DEF9"/>
<path d="M238.831 132.128H237.808V142.118H238.831V132.128Z" fill="#D5DEF9"/>
<path d="M235.373 132.128H234.351V142.118H235.373V132.128Z" fill="#D5DEF9"/>
<path d="M231.227 132.128H230.204V142.118H231.227V132.128Z" fill="#D5DEF9"/>
<path d="M224.872 132.128H223.849V142.118H224.872V132.128Z" fill="#D5DEF9"/>
<path d="M218.151 132.128H217.129V142.118H218.151V132.128Z" fill="#D5DEF9"/>
<path d="M207.849 132.128H206.827V142.118H207.849V132.128Z" fill="#D5DEF9"/>
<path d="M198.203 132.128H197.181V142.118H198.203V132.128Z" fill="#D5DEF9"/>
<path d="M189.587 132.129H188.565V142.119H189.587V132.129Z" fill="#D5DEF9"/>
<path d="M242.122 132.128H241.099V142.118H242.122V132.128Z" fill="#D5DEF9"/>
<path d="M244.298 132.128H243.276V142.118H244.298V132.128Z" fill="#D5DEF9"/>
<path d="M246.396 132.128H245.374V142.118H246.396V132.128Z" fill="#D5DEF9"/>
<path d="M247.976 132.16V142.082C247.852 142.104 247.724 142.118 247.593 142.118H246.953V132.128H247.593C247.724 132.124 247.852 132.139 247.976 132.16Z" fill="#D5DEF9"/>
<path d="M249.396 133.086V141.156C249.147 141.522 248.792 141.809 248.377 141.969V132.27C248.792 132.433 249.147 132.721 249.396 133.086Z" fill="#D5DEF9"/>
<path d="M217.299 113.529L173.587 64.7468C168.876 59.4927 160.167 62.8227 160.167 69.8803V192.806C160.167 192.806 217.296 200.73 217.296 192.806C217.299 184.879 217.299 113.529 217.299 113.529Z" fill="#0B0754"/>
<path d="M140.702 191.095L159.844 188.649C159.844 188.649 158.243 176.852 160.97 160.912C162.983 149.14 167.353 135.11 176.473 121.907C192.023 99.3924 240.389 85.1564 240.389 85.1564L240.272 82.3305L238.508 82.2134C238.508 82.2134 239.243 81.6525 240.23 81.3081L239.953 74.6268C238.508 74.6659 236.445 74.8363 234.422 75.4007C235.554 75.067 237.972 74.4067 239.935 74.1724L239.789 70.6578C169.075 75.4717 147.753 119.188 141.884 152.58C138.128 173.955 140.702 191.095 140.702 191.095Z" fill="#93B3F4"/>
<path d="M56.3658 188.355L140.702 191.095C140.603 178.127 143.429 164.594 146.279 154.305C149.13 144.017 152.006 136.97 152.006 136.97C174.883 80.8182 239.793 70.6542 239.793 70.6542L166.174 44C131.312 48.0755 107.473 65.8864 91.1853 87.6841C59.284 130.374 56.3658 188.355 56.3658 188.355Z" fill="#93B3F4"/>
<path opacity="0.5" d="M56.3658 188.355L140.702 191.095L159.844 188.649C159.844 188.649 158.243 176.852 160.97 160.912C156.866 158.665 152.002 156.453 146.276 154.305C144.771 153.741 143.308 153.166 141.884 152.58C87.3299 130.083 90.7274 91.3904 91.1853 87.6841C59.284 130.374 56.3658 188.355 56.3658 188.355Z" fill="#2D5BE3"/>
<path d="M165.862 48.3134L165.638 48.3205C165.003 48.3312 149.933 48.7252 130.947 58.6833C119.82 64.5197 109.681 72.4506 100.813 82.2596C97.3802 86.0546 94.1354 90.1373 91.0894 94.4897C87.66 99.3889 84.4827 104.629 81.5609 110.199C80.0202 113.138 78.5504 116.163 77.1552 119.28C77.0345 119.557 76.9067 119.837 76.786 120.114C75.7281 122.507 74.7163 124.95 73.7471 127.445C73.3708 128.379 67.1901 143.957 63.8352 159.837C63.4802 161.516 63.1572 163.199 62.8767 164.871C62.685 166.003 62.511 167.132 62.3619 168.243C61.9785 171.108 61.7442 173.895 61.7123 176.519C61.6945 177.9 61.73 179.234 61.833 180.509L61.8365 180.53L62.4968 187.148L62.6388 188.568L62.8483 190.676L63.0649 192.821L63.1394 193.584L63.2388 194.564L116.661 191.319L121.07 191.053L121.578 191.024L124.471 190.847L127.357 190.673H127.372L138.107 190.02L137.784 188.589C137.741 188.401 134.159 171.982 138.391 151.096C138.491 150.596 138.597 150.095 138.711 149.587C139.044 148.047 139.424 146.485 139.854 144.901C140.184 143.68 140.539 142.448 140.929 141.209C141.345 139.885 141.789 138.568 142.261 137.269C142.318 137.112 142.374 136.949 142.435 136.793C144.582 130.946 147.281 125.383 150.515 120.121C150.685 119.841 150.859 119.564 151.037 119.284C153.01 116.145 155.176 113.114 157.533 110.202C158.382 109.148 159.259 108.108 160.164 107.085C161.662 105.381 163.231 103.724 164.864 102.105C166.902 100.088 169.05 98.1392 171.297 96.2577C171.308 96.2506 171.315 96.2399 171.325 96.2328C176.984 91.5076 183.3 87.2155 190.258 83.3637C190.844 83.037 191.437 82.714 192.033 82.398C192.037 82.3945 192.04 82.3909 192.047 82.3909C192.051 82.3874 192.058 82.3838 192.065 82.3838C200.948 77.6373 210.835 73.5973 221.666 70.2921L225.305 69.181L165.862 48.3134ZM210.824 71.2933C202.815 74.2434 195.385 77.6338 188.554 81.4501C178.806 86.8996 170.282 93.2223 163.057 100.376C162.07 101.356 161.101 102.35 160.167 103.361C158.112 105.566 156.174 107.845 154.352 110.195C147.646 118.847 142.523 128.461 139.059 138.909C138.931 139.281 138.81 139.658 138.693 140.034C138.633 140.212 138.576 140.389 138.522 140.567C137.777 142.956 137.138 145.313 136.602 147.617C136.41 148.427 136.233 149.225 136.069 150.021V150.024C135.878 150.947 135.7 151.856 135.533 152.761C133.968 161.438 133.708 169.099 133.854 174.662C134.017 180.917 134.688 185.504 135.075 187.694L124.123 188.358L121.244 188.532L120.63 188.571L116.313 188.834L100.579 189.792H100.561L65.486 191.922L65.1594 188.642L64.3251 180.292C64.2293 179.121 64.1938 177.86 64.2151 176.515C64.2825 171.886 65.0245 166.262 66.4126 159.833C67.2469 155.953 68.319 151.778 69.6184 147.344C72.7176 136.779 76.037 128.439 76.0725 128.358C77.1659 125.546 78.3126 122.795 79.5161 120.114C79.6261 119.869 79.7362 119.624 79.8498 119.38C81.2805 116.223 82.7964 113.16 84.3868 110.195C86.6092 106.042 88.9842 102.073 91.4977 98.3096C94.9342 93.162 98.637 88.3871 102.595 84.0027C111.247 74.4174 121.134 66.6639 131.983 60.9589C143.752 54.764 154.132 52.3463 160.164 51.4091C163.331 50.9156 166.568 51.2103 169.589 52.2718L210.788 66.7278C212.943 67.4769 212.961 70.5052 210.824 71.2933Z" fill="#2D5BE3"/>
<path d="M100.004 106.794C100.515 119.138 108.055 126.299 120.399 125.787C132.743 125.276 145.218 117.292 144.707 104.945C144.196 92.601 137.056 85.5008 124.713 86.012C112.365 86.5232 99.4925 94.4506 100.004 106.794Z" fill="#2D5BE3"/>
<path d="M217.299 113.529V212.829C215.72 213.798 214.111 214.728 212.468 215.616C211.211 216.298 209.937 216.958 208.644 217.593C206.688 218.555 204.689 219.464 202.655 220.313C202.318 220.458 201.977 220.6 201.633 220.739C201.04 220.98 200.444 221.218 199.84 221.449C198.97 221.786 198.097 222.113 197.216 222.432C195.264 223.139 193.272 223.792 191.252 224.399C190.535 224.615 189.815 224.825 189.09 225.024C186.303 225.808 183.453 226.501 180.535 227.097C178.298 227.679 176.022 228.084 173.729 228.315C168.432 229.128 162.933 229.657 157.239 229.891C156.309 229.934 155.375 229.962 154.434 229.983C153.064 230.019 151.683 230.036 150.288 230.036C148.612 230.036 146.929 230.019 145.236 229.98C131.018 229.664 116.313 228.009 102.109 224.981C101.037 224.754 99.9648 224.52 98.8997 224.275C86.2898 221.388 74.1413 217.409 63.1466 212.307C62.8661 212.179 62.5892 212.048 62.3123 211.917C59.5468 210.614 56.8522 209.236 54.2465 207.784V113.529C54.2465 111.694 55.7482 110.192 57.58 110.192H213.955C214.08 110.192 214.204 110.199 214.324 110.21C215.993 110.398 217.299 111.821 217.299 113.529Z" fill="#2D5BE3"/>
<path d="M68.4681 119.277H65.6884C65.4612 119.277 65.273 119.465 65.273 119.692C65.273 119.923 65.4612 120.111 65.6884 120.111H68.4681C68.6989 120.111 68.8835 119.923 68.8835 119.692C68.8835 119.465 68.6989 119.277 68.4681 119.277ZM74.0276 119.277H71.2479C71.0207 119.277 70.8325 119.465 70.8325 119.692C70.8325 119.923 71.0207 120.111 71.2479 120.111H74.0276C74.2584 120.111 74.4465 119.923 74.4465 119.692C74.4465 119.465 74.2584 119.277 74.0276 119.277ZM79.8569 119.38C79.7823 119.316 79.69 119.28 79.5906 119.28H76.8109C76.5801 119.28 76.392 119.468 76.392 119.695C76.392 119.923 76.573 120.107 76.7967 120.111C76.8038 120.114 76.8074 120.114 76.8145 120.114H79.5942C79.8214 120.114 80.0096 119.926 80.0096 119.695C80.006 119.568 79.9492 119.451 79.8569 119.38ZM85.1501 119.277H82.3704C82.1396 119.277 81.955 119.465 81.955 119.692C81.955 119.923 82.1396 120.111 82.3704 120.111H85.1501C85.3773 120.111 85.5655 119.923 85.5655 119.692C85.5655 119.465 85.3773 119.277 85.1501 119.277ZM90.7096 119.277H87.9299C87.6991 119.277 87.5145 119.465 87.5145 119.692C87.5145 119.923 87.6991 120.111 87.9299 120.111H90.7096C90.9403 120.111 91.125 119.923 91.125 119.692C91.125 119.465 90.9403 119.277 90.7096 119.277ZM96.2691 119.277H93.4893C93.2621 119.277 93.074 119.465 93.074 119.692C93.074 119.923 93.2621 120.111 93.4893 120.111H96.2691C96.4998 120.111 96.6844 119.923 96.6844 119.692C96.6844 119.465 96.4998 119.277 96.2691 119.277ZM101.829 119.277H99.0488C98.8216 119.277 98.6334 119.465 98.6334 119.692C98.6334 119.923 98.8216 120.111 99.0488 120.111H101.829C102.059 120.111 102.247 119.923 102.247 119.692C102.247 119.465 102.059 119.277 101.829 119.277ZM107.392 119.277H104.608C104.456 119.277 104.321 119.358 104.253 119.482C104.214 119.546 104.193 119.617 104.193 119.695C104.193 119.926 104.381 120.114 104.608 120.114H107.392C107.619 120.114 107.807 119.926 107.807 119.695C107.807 119.465 107.619 119.277 107.392 119.277ZM112.951 119.277H110.171C109.941 119.277 109.756 119.465 109.756 119.692C109.756 119.923 109.941 120.111 110.171 120.111H112.951C113.178 120.111 113.366 119.923 113.366 119.692C113.37 119.465 113.182 119.277 112.951 119.277ZM118.511 119.277H115.731C115.5 119.277 115.315 119.465 115.315 119.692C115.315 119.923 115.5 120.111 115.731 120.111H118.511C118.741 120.111 118.926 119.923 118.926 119.692C118.929 119.465 118.741 119.277 118.511 119.277ZM124.07 119.277H121.29C121.063 119.277 120.875 119.465 120.875 119.692C120.875 119.923 121.063 120.111 121.29 120.111H124.07C124.301 120.111 124.485 119.923 124.485 119.692C124.489 119.465 124.304 119.277 124.07 119.277ZM129.629 119.277H126.85C126.623 119.277 126.434 119.465 126.434 119.692C126.434 119.923 126.623 120.111 126.85 120.111H129.629C129.86 120.111 130.048 119.923 130.048 119.692C130.052 119.465 129.864 119.277 129.629 119.277ZM135.192 119.277H132.409C132.182 119.277 131.994 119.465 131.994 119.692C131.994 119.923 132.182 120.111 132.409 120.111H135.192C135.42 120.111 135.608 119.923 135.608 119.692C135.611 119.465 135.423 119.277 135.192 119.277ZM140.752 119.277H137.972C137.756 119.277 137.575 119.443 137.557 119.656V119.66C137.553 119.674 137.553 119.681 137.553 119.695C137.553 119.926 137.741 120.114 137.972 120.114H140.752C140.979 120.114 141.167 119.926 141.167 119.695C141.171 119.465 140.983 119.277 140.752 119.277ZM146.315 119.277H143.535C143.304 119.277 143.12 119.465 143.12 119.692C143.12 119.923 143.304 120.111 143.535 120.111H146.315C146.542 120.111 146.73 119.923 146.73 119.692C146.73 119.465 146.542 119.277 146.315 119.277ZM151.874 119.277H149.095C148.864 119.277 148.679 119.465 148.679 119.692C148.679 119.923 148.864 120.111 149.095 120.111H151.874C152.105 120.111 152.29 119.923 152.29 119.692C152.29 119.465 152.105 119.277 151.874 119.277ZM157.434 119.277H154.654C154.427 119.277 154.239 119.465 154.239 119.692C154.239 119.923 154.427 120.111 154.654 120.111H157.434C157.665 120.111 157.849 119.923 157.849 119.692C157.849 119.465 157.665 119.277 157.434 119.277ZM162.993 119.277H160.214C160.196 119.277 160.185 119.277 160.168 119.284C159.962 119.305 159.798 119.482 159.798 119.695C159.798 119.912 159.962 120.086 160.168 120.111C160.185 120.118 160.196 120.118 160.214 120.118H162.993C163.224 120.118 163.412 119.93 163.412 119.699C163.412 119.465 163.224 119.277 162.993 119.277ZM168.556 119.277H165.777C165.546 119.277 165.358 119.465 165.358 119.692C165.358 119.923 165.546 120.111 165.777 120.111H168.556C168.784 120.111 168.972 119.923 168.972 119.692C168.972 119.465 168.784 119.277 168.556 119.277ZM174.116 119.277H171.336C171.105 119.277 170.921 119.465 170.921 119.692C170.921 119.923 171.105 120.111 171.336 120.111H174.116C174.343 120.111 174.531 119.923 174.531 119.692C174.531 119.465 174.343 119.277 174.116 119.277ZM179.675 119.277H176.896C176.665 119.277 176.48 119.465 176.48 119.692C176.48 119.923 176.665 120.111 176.896 120.111H179.675C179.906 120.111 180.091 119.923 180.091 119.692C180.091 119.465 179.906 119.277 179.675 119.277ZM185.235 119.277H182.455C182.228 119.277 182.04 119.465 182.04 119.692C182.04 119.923 182.228 120.111 182.455 120.111H185.235C185.466 120.111 185.65 119.923 185.65 119.692C185.65 119.465 185.466 119.277 185.235 119.277ZM190.794 119.277H188.015C187.787 119.277 187.599 119.465 187.599 119.692C187.599 119.923 187.787 120.111 188.015 120.111H190.794C191.025 120.111 191.213 119.923 191.213 119.692C191.213 119.465 191.025 119.277 190.794 119.277ZM196.357 119.277H193.578C193.347 119.277 193.159 119.465 193.159 119.692C193.159 119.923 193.347 120.111 193.578 120.111H196.357C196.585 120.111 196.773 119.923 196.773 119.692C196.773 119.465 196.588 119.277 196.357 119.277ZM201.917 119.277H199.137C198.906 119.277 198.722 119.465 198.722 119.692C198.722 119.923 198.906 120.111 199.137 120.111H201.917C202.144 120.111 202.332 119.923 202.332 119.692C202.336 119.465 202.148 119.277 201.917 119.277ZM204.661 120.597C204.523 120.413 204.26 120.377 204.079 120.519C203.894 120.658 203.859 120.92 203.997 121.101C204.331 121.538 204.505 122.056 204.505 122.603V123.498C204.505 123.728 204.689 123.917 204.92 123.917C205.151 123.917 205.336 123.728 205.336 123.498V122.603C205.339 121.875 205.105 121.179 204.661 120.597ZM63.5406 120.551C63.3524 120.416 63.0933 120.455 62.9548 120.64C62.5359 121.215 62.3123 121.893 62.3123 122.603V123.544C62.3123 123.775 62.4969 123.963 62.7276 123.963C62.9548 123.963 63.143 123.775 63.143 123.544V122.603C63.143 122.07 63.3098 121.563 63.6258 121.137C63.7642 120.949 63.7287 120.689 63.5406 120.551ZM204.924 125.862C204.693 125.862 204.508 126.05 204.508 126.281V129.061C204.508 129.288 204.693 129.476 204.924 129.476C205.155 129.476 205.339 129.288 205.339 129.061V126.281C205.339 126.05 205.155 125.862 204.924 125.862ZM62.7312 125.912C62.5004 125.912 62.3158 126.1 62.3158 126.327V129.11C62.3158 129.338 62.5004 129.526 62.7312 129.526C62.9584 129.526 63.1465 129.338 63.1465 129.11V126.327C63.1465 126.096 62.9584 125.912 62.7312 125.912ZM204.924 131.425C204.693 131.425 204.508 131.61 204.508 131.84V134.62C204.508 134.847 204.693 135.035 204.924 135.035C205.155 135.035 205.339 134.847 205.339 134.62V131.84C205.339 131.61 205.155 131.425 204.924 131.425ZM62.7312 131.471C62.5004 131.471 62.3158 131.656 62.3158 131.887V134.666C62.3158 134.893 62.5004 135.082 62.7312 135.082C62.9584 135.082 63.1465 134.893 63.1465 134.666V131.887C63.1465 131.659 62.9584 131.471 62.7312 131.471ZM204.924 136.985C204.693 136.985 204.508 137.169 204.508 137.4V140.18C204.508 140.41 204.693 140.595 204.924 140.595C205.155 140.595 205.339 140.41 205.339 140.18V137.4C205.339 137.169 205.155 136.985 204.924 136.985ZM62.7312 137.034C62.5004 137.034 62.3158 137.219 62.3158 137.45V140.229C62.3158 140.46 62.5004 140.645 62.7312 140.645C62.9584 140.645 63.1465 140.46 63.1465 140.229V137.45C63.1465 137.219 62.9584 137.034 62.7312 137.034ZM204.924 142.544C204.881 142.544 204.846 142.551 204.81 142.562C204.636 142.611 204.508 142.771 204.508 142.963V145.743C204.508 145.934 204.636 146.094 204.81 146.144C204.846 146.154 204.885 146.162 204.924 146.162C205.155 146.162 205.339 145.977 205.339 145.746V142.966C205.339 142.732 205.155 142.544 204.924 142.544ZM62.7312 142.594C62.5004 142.594 62.3158 142.778 62.3158 143.009V145.789C62.3158 146.02 62.5004 146.204 62.7312 146.204C62.9584 146.204 63.1465 146.02 63.1465 145.789V143.009C63.1465 142.778 62.9584 142.594 62.7312 142.594ZM204.924 148.103C204.881 148.103 204.846 148.111 204.81 148.121C204.636 148.171 204.508 148.331 204.508 148.522V151.302C204.508 151.494 204.636 151.657 204.81 151.707C204.846 151.717 204.885 151.725 204.924 151.725C205.155 151.725 205.339 151.536 205.339 151.306V148.526C205.339 148.292 205.155 148.103 204.924 148.103ZM62.7312 148.153C62.5004 148.153 62.3158 148.341 62.3158 148.569V151.348C62.3158 151.448 62.3478 151.533 62.4046 151.604C62.4791 151.703 62.5963 151.767 62.7312 151.767C62.9584 151.767 63.1465 151.579 63.1465 151.348V148.569C63.1465 148.341 62.9584 148.153 62.7312 148.153ZM204.924 153.663C204.693 153.663 204.508 153.851 204.508 154.078V156.862C204.508 157.089 204.693 157.277 204.924 157.277C205.155 157.277 205.339 157.089 205.339 156.862V154.078C205.339 153.851 205.155 153.663 204.924 153.663ZM62.7312 153.713C62.5004 153.713 62.3158 153.901 62.3158 154.128V156.911C62.3158 157.138 62.5004 157.327 62.7312 157.327C62.9584 157.327 63.1465 157.138 63.1465 156.911V154.128C63.1465 153.901 62.9584 153.713 62.7312 153.713ZM204.924 159.226C204.693 159.226 204.508 159.411 204.508 159.641V162.421C204.508 162.648 204.693 162.836 204.924 162.836C205.155 162.836 205.339 162.648 205.339 162.421V159.641C205.339 159.411 205.155 159.226 204.924 159.226ZM62.7312 159.272C62.5004 159.272 62.3158 159.46 62.3158 159.691V162.471C62.3158 162.698 62.5004 162.886 62.7312 162.886C62.9584 162.886 63.1465 162.698 63.1465 162.471V159.691C63.1465 159.46 62.9584 159.272 62.7312 159.272ZM204.924 164.785C204.693 164.785 204.508 164.97 204.508 165.201V167.981C204.508 168.211 204.693 168.396 204.924 168.396C205.155 168.396 205.339 168.211 205.339 167.981V165.201C205.339 164.97 205.155 164.785 204.924 164.785ZM62.8838 164.864C62.8377 164.846 62.7844 164.835 62.7312 164.835C62.5004 164.835 62.3158 165.02 62.3158 165.25V168.03C62.3158 168.105 62.3336 168.176 62.3691 168.236C62.4401 168.36 62.575 168.446 62.7312 168.446C62.9584 168.446 63.1465 168.261 63.1465 168.03V165.25C63.1465 165.073 63.0365 164.924 62.8838 164.864ZM204.924 170.345C204.693 170.345 204.508 170.529 204.508 170.76V173.54C204.508 173.721 204.618 173.867 204.771 173.927H204.775C204.821 173.945 204.874 173.955 204.924 173.955C205.155 173.955 205.339 173.771 205.339 173.54V170.76C205.339 170.529 205.155 170.345 204.924 170.345ZM62.7312 170.395C62.5004 170.395 62.3158 170.579 62.3158 170.81V173.59C62.3158 173.82 62.5004 174.005 62.7312 174.005C62.9584 174.005 63.1465 173.82 63.1465 173.59V170.81C63.1465 170.579 62.9584 170.395 62.7312 170.395ZM204.924 175.904C204.693 175.904 204.508 176.093 204.508 176.32V179.099C204.508 179.33 204.693 179.518 204.924 179.518C205.155 179.518 205.339 179.33 205.339 179.099V176.32C205.339 176.093 205.155 175.904 204.924 175.904ZM62.7312 175.954C62.5004 175.954 62.3158 176.142 62.3158 176.369V179.149C62.3158 179.38 62.5004 179.568 62.7312 179.568C62.9584 179.568 63.1465 179.38 63.1465 179.149V176.369C63.1465 176.142 62.9584 175.954 62.7312 175.954ZM205.336 181.822C205.321 181.723 205.272 181.634 205.201 181.574C205.126 181.506 205.03 181.464 204.924 181.464C204.817 181.464 204.718 181.506 204.647 181.574C204.576 181.634 204.526 181.723 204.512 181.822C204.508 181.84 204.505 181.865 204.505 181.883V184.666C204.505 184.893 204.689 185.081 204.92 185.081C205.151 185.081 205.336 184.893 205.336 184.666V181.883C205.339 181.861 205.336 181.84 205.336 181.822ZM62.7312 181.514C62.5004 181.514 62.3158 181.702 62.3158 181.929V184.712C62.3158 184.939 62.5004 185.128 62.7312 185.128C62.9584 185.128 63.1465 184.939 63.1465 184.712V181.929C63.1465 181.702 62.9584 181.514 62.7312 181.514ZM204.924 187.027C204.693 187.027 204.508 187.215 204.508 187.446V190.226C204.508 190.453 204.693 190.641 204.924 190.641C205.155 190.641 205.339 190.453 205.339 190.226V187.446C205.339 187.211 205.155 187.027 204.924 187.027ZM62.7312 187.073C62.646 187.073 62.5714 187.098 62.504 187.137C62.3904 187.211 62.3123 187.343 62.3123 187.492V190.272C62.3123 190.499 62.4969 190.687 62.7276 190.687C62.7702 190.687 62.8164 190.68 62.8519 190.666C63.0223 190.612 63.143 190.456 63.143 190.272V187.492C63.1465 187.261 62.9584 187.073 62.7312 187.073ZM204.924 192.586C204.693 192.586 204.508 192.771 204.508 193.002V195.781C204.508 196.012 204.693 196.197 204.924 196.197C205.155 196.197 205.339 196.012 205.339 195.781V193.002C205.339 192.774 205.155 192.586 204.924 192.586ZM63.072 192.814C62.9974 192.707 62.8732 192.636 62.7312 192.636C62.5004 192.636 62.3158 192.821 62.3158 193.051V195.831C62.3158 196.058 62.5004 196.246 62.7312 196.246C62.9584 196.246 63.1465 196.058 63.1465 195.831V193.051C63.1465 192.963 63.1181 192.881 63.072 192.814ZM204.924 198.149C204.693 198.149 204.508 198.334 204.508 198.565V201.344C204.508 201.387 204.515 201.433 204.53 201.469C204.53 201.476 204.53 201.479 204.533 201.486C204.576 201.611 204.679 201.71 204.807 201.746C204.842 201.756 204.881 201.763 204.92 201.763C205.101 201.763 205.254 201.65 205.311 201.49C205.314 201.483 205.314 201.479 205.314 201.472C205.332 201.433 205.336 201.391 205.336 201.348V198.568C205.339 198.334 205.155 198.149 204.924 198.149ZM62.7312 198.196C62.5004 198.196 62.3158 198.38 62.3158 198.611V201.391C62.3158 201.621 62.5004 201.806 62.7312 201.806C62.9584 201.806 63.1465 201.621 63.1465 201.391V198.611C63.1465 198.38 62.9584 198.196 62.7312 198.196ZM204.924 203.709C204.881 203.709 204.846 203.716 204.81 203.727C204.636 203.776 204.508 203.936 204.508 204.128V206.907C204.508 207.099 204.636 207.259 204.81 207.309C204.846 207.319 204.885 207.326 204.924 207.326C205.155 207.326 205.339 207.142 205.339 206.911V204.131C205.339 203.897 205.155 203.709 204.924 203.709ZM62.7312 203.755C62.5004 203.755 62.3158 203.943 62.3158 204.17V206.95C62.3158 207.181 62.5004 207.365 62.7312 207.365C62.9584 207.365 63.1465 207.181 63.1465 206.95V204.17C63.1465 203.943 62.9584 203.755 62.7312 203.755ZM204.924 209.268C204.881 209.268 204.846 209.275 204.81 209.286C204.636 209.336 204.508 209.496 204.508 209.687V212.467C204.508 212.698 204.693 212.886 204.924 212.886C205.155 212.886 205.339 212.698 205.339 212.467V209.687C205.339 209.456 205.155 209.268 204.924 209.268ZM62.7312 209.318C62.5004 209.318 62.3158 209.506 62.3158 209.733V211.917C62.5892 212.048 62.8696 212.179 63.1501 212.307V209.733C63.1465 209.503 62.9584 209.318 62.7312 209.318ZM205.328 215.154C205.289 214.966 205.123 214.828 204.924 214.828C204.693 214.828 204.508 215.016 204.508 215.247V218.026C204.508 218.254 204.693 218.442 204.924 218.442C205.155 218.442 205.339 218.254 205.339 218.026V215.247C205.339 215.215 205.336 215.183 205.328 215.154ZM101.928 224.193H99.1482C99.0559 224.193 98.9671 224.221 98.8997 224.275C99.9683 224.52 101.037 224.754 102.109 224.981C102.247 224.917 102.343 224.775 102.343 224.608C102.343 224.378 102.159 224.193 101.928 224.193ZM107.487 224.193H104.708C104.48 224.193 104.292 224.378 104.292 224.608C104.292 224.839 104.48 225.024 104.708 225.024H107.487C107.718 225.024 107.903 224.839 107.903 224.608C107.903 224.378 107.718 224.193 107.487 224.193ZM113.047 224.193H110.267C110.04 224.193 109.852 224.378 109.852 224.608C109.852 224.839 110.04 225.024 110.267 225.024H113.047C113.278 225.024 113.466 224.839 113.466 224.608C113.466 224.378 113.278 224.193 113.047 224.193ZM118.61 224.193H115.827C115.599 224.193 115.411 224.378 115.411 224.608C115.411 224.839 115.599 225.024 115.827 225.024H118.61C118.837 225.024 119.025 224.839 119.025 224.608C119.025 224.378 118.837 224.193 118.61 224.193ZM124.169 224.193H121.39C121.159 224.193 120.971 224.378 120.971 224.608C120.971 224.839 121.159 225.024 121.39 225.024H124.169C124.397 225.024 124.585 224.839 124.585 224.608C124.585 224.378 124.397 224.193 124.169 224.193ZM129.729 224.193H126.949C126.718 224.193 126.534 224.378 126.534 224.608C126.534 224.839 126.718 225.024 126.949 225.024H129.729C129.96 225.024 130.144 224.839 130.144 224.608C130.144 224.378 129.96 224.193 129.729 224.193ZM135.288 224.193H132.509C132.278 224.193 132.093 224.378 132.093 224.608C132.093 224.839 132.278 225.024 132.509 225.024H135.288C135.519 225.024 135.704 224.839 135.704 224.608C135.707 224.378 135.519 224.193 135.288 224.193ZM140.848 224.193H138.068C137.841 224.193 137.653 224.378 137.653 224.608C137.653 224.839 137.841 225.024 138.068 225.024H140.848C141.079 225.024 141.263 224.839 141.263 224.608C141.267 224.378 141.082 224.193 140.848 224.193ZM146.411 224.193H143.628C143.521 224.193 143.425 224.236 143.354 224.299C143.265 224.374 143.212 224.484 143.212 224.608C143.212 224.839 143.4 225.024 143.628 225.024H146.411C146.638 225.024 146.826 224.839 146.826 224.608C146.83 224.378 146.642 224.193 146.411 224.193ZM151.97 224.193H149.191C148.96 224.193 148.772 224.378 148.772 224.608C148.772 224.839 148.96 225.024 149.191 225.024H151.97C152.198 225.024 152.386 224.839 152.386 224.608C152.389 224.378 152.201 224.193 151.97 224.193ZM157.53 224.193H154.75C154.519 224.193 154.335 224.378 154.335 224.608C154.335 224.839 154.519 225.024 154.75 225.024H157.53C157.757 225.024 157.945 224.839 157.945 224.608C157.949 224.378 157.761 224.193 157.53 224.193ZM163.093 224.193H160.313C160.082 224.193 159.898 224.378 159.898 224.608C159.898 224.839 160.082 225.024 160.313 225.024H163.093C163.324 225.024 163.508 224.839 163.508 224.608C163.508 224.378 163.324 224.193 163.093 224.193ZM168.652 224.193H165.873C165.645 224.193 165.457 224.378 165.457 224.608C165.457 224.839 165.645 225.024 165.873 225.024H168.652C168.883 225.024 169.068 224.839 169.068 224.608C169.068 224.378 168.883 224.193 168.652 224.193ZM174.212 224.193H171.432C171.205 224.193 171.017 224.378 171.017 224.608C171.017 224.839 171.205 225.024 171.432 225.024H174.212C174.442 225.024 174.631 224.839 174.631 224.608C174.631 224.378 174.442 224.193 174.212 224.193ZM179.775 224.193H176.995C176.764 224.193 176.576 224.378 176.576 224.608C176.576 224.839 176.764 225.024 176.995 225.024H179.775C180.002 225.024 180.19 224.839 180.19 224.608C180.19 224.378 180.002 224.193 179.775 224.193ZM185.334 224.193H182.555C182.324 224.193 182.139 224.378 182.139 224.608C182.139 224.839 182.324 225.024 182.555 225.024H185.334C185.561 225.024 185.75 224.839 185.75 224.608C185.75 224.378 185.561 224.193 185.334 224.193ZM190.894 224.193H188.114C187.894 224.193 187.713 224.363 187.699 224.58C187.695 224.587 187.695 224.598 187.695 224.608C187.695 224.839 187.88 225.024 188.11 225.024H189.087C189.811 224.821 190.532 224.615 191.249 224.399C191.181 224.275 191.05 224.193 190.894 224.193Z" fill="#0B0754"/>
<path d="M67.8753 176.511H43.9369C40.1205 176.511 37 173.391 37 169.575V166.766C37 162.95 40.1205 159.829 43.9369 159.829H67.8718C71.6881 159.829 74.8087 162.95 74.8087 166.766V169.575C74.8122 173.391 71.6881 176.511 67.8753 176.511Z" fill="#0B0754"/>
<path d="M225.866 181.574C225.866 181.659 225.862 181.741 225.862 181.822C225.773 185.085 225.379 188.323 224.698 191.496C224.694 191.514 224.691 191.535 224.687 191.553C224.687 191.56 224.684 191.56 224.684 191.567C224.446 192.682 224.165 193.783 223.853 194.88C223.217 197.127 222.429 199.328 221.499 201.472C221.499 201.479 221.499 201.483 221.496 201.49C220.324 204.195 218.925 206.812 217.306 209.3C216.831 210.035 216.334 210.756 215.815 211.469C214.782 212.904 213.664 214.292 212.475 215.627C211.218 216.308 209.944 216.968 208.651 217.604C206.695 218.566 204.696 219.475 202.662 220.323C202.325 220.469 201.984 220.611 201.64 220.749C201.047 220.991 200.451 221.229 199.847 221.459C198.977 221.797 198.104 222.123 197.223 222.443C195.271 223.149 193.279 223.802 191.259 224.409C190.542 224.626 189.822 224.836 189.097 225.034C186.31 225.819 183.46 226.511 180.542 227.108C178.305 227.69 176.029 228.095 173.736 228.325C168.439 229.138 162.94 229.667 157.246 229.902C156.316 229.944 155.382 229.973 154.441 229.994C150.966 228.702 147.625 227.044 144.472 225.034C144.096 224.8 143.727 224.555 143.358 224.307C136.598 219.762 130.794 213.582 126.59 205.96C123.949 201.167 122.128 196.144 121.081 191.053C121.038 190.857 120.999 190.662 120.964 190.463C120.839 189.839 120.733 189.21 120.633 188.582C118.361 174.058 122.288 159.183 131.33 147.681C133.495 144.923 135.956 142.359 138.696 140.045C139.84 139.075 141.032 138.149 142.271 137.272C143.283 136.551 144.323 135.866 145.395 135.213C145.403 135.209 145.403 135.206 145.41 135.206C145.772 134.982 146.141 134.766 146.51 134.553C146.801 134.382 147.096 134.219 147.391 134.056C149.822 132.714 152.315 131.585 154.846 130.662C156.603 130.016 158.382 129.476 160.167 129.029C164.392 127.978 168.677 127.467 172.937 127.47C180.439 127.477 187.848 129.078 194.65 132.139C195.502 132.518 196.347 132.927 197.181 133.353C197.525 133.527 197.863 133.708 198.203 133.892C199.062 134.354 199.904 134.844 200.735 135.359C202.027 136.15 203.287 137.002 204.508 137.911C204.789 138.117 205.066 138.326 205.343 138.539C205.843 138.926 206.34 139.328 206.83 139.736C207.174 140.02 207.515 140.311 207.853 140.606C208.41 141.095 208.96 141.6 209.503 142.114C209.51 142.121 209.514 142.125 209.521 142.132C210.895 143.446 212.201 144.837 213.44 146.314C213.788 146.726 214.129 147.148 214.463 147.571C215.464 148.838 216.412 150.159 217.306 151.533C217.381 151.646 217.452 151.76 217.523 151.877C217.576 151.952 217.622 152.03 217.669 152.104C217.835 152.367 218.002 152.626 218.159 152.893C218.553 153.539 218.936 154.195 219.302 154.863C220.558 157.146 221.631 159.485 222.522 161.853C222.525 161.86 222.529 161.864 222.529 161.871C223.761 165.147 224.645 168.485 225.195 171.847C225.717 175.074 225.94 178.336 225.866 181.574Z" fill="#203EA9"/>
<path d="M221.077 191.496C221.073 191.521 221.07 191.546 221.066 191.567C220.484 194.951 219.575 198.266 218.354 201.469C218.354 201.476 218.35 201.479 218.35 201.486C218.024 202.349 217.672 203.205 217.299 204.05C216.465 205.945 215.517 207.795 214.456 209.581C214.126 210.142 213.785 210.695 213.433 211.239C213.387 211.313 213.337 211.388 213.288 211.462C211.9 213.606 210.348 215.658 208.644 217.597C206.688 218.559 204.689 219.468 202.655 220.316C202.318 220.462 201.977 220.604 201.633 220.742C201.04 220.984 200.443 221.221 199.84 221.452C198.97 221.789 198.097 222.116 197.216 222.436C195.264 223.142 193.272 223.795 191.252 224.402C190.535 224.619 189.814 224.828 189.09 225.027C186.303 225.812 183.453 226.504 180.534 227.1C178.298 227.683 176.022 228.087 173.729 228.318C168.432 229.131 162.933 229.66 157.239 229.894C156.309 229.937 155.375 229.965 154.434 229.987C153.064 230.022 151.683 230.04 150.288 230.04C148.612 230.04 146.929 230.022 145.236 229.983C135.952 225.354 127.925 217.955 122.54 208.182C119.558 202.775 117.623 197.077 116.668 191.312C116.611 190.978 116.558 190.644 116.512 190.311C116.437 189.821 116.373 189.327 116.317 188.834C114.527 173.632 119.448 158.235 129.846 146.882C132.257 144.248 134.958 141.834 137.944 139.69C138.313 139.427 138.682 139.168 139.059 138.912C140.152 138.167 141.281 137.457 142.442 136.789C142.74 136.615 143.042 136.445 143.344 136.282C144.022 135.905 144.707 135.55 145.392 135.209C145.399 135.206 145.399 135.202 145.406 135.202C145.754 135.028 146.102 134.858 146.453 134.695C146.773 134.549 147.089 134.4 147.408 134.258C149.482 133.335 151.587 132.557 153.71 131.918C153.912 131.858 154.111 131.798 154.313 131.741C156.248 131.184 158.201 130.743 160.16 130.413C161.204 130.236 162.244 130.094 163.292 129.987C166.075 129.693 168.858 129.622 171.627 129.767C176.086 130.001 180.488 130.8 184.731 132.131C186.023 132.536 187.301 132.991 188.561 133.495C188.906 133.63 189.243 133.768 189.584 133.917C190.464 134.286 191.33 134.684 192.193 135.103C193.897 135.937 195.566 136.864 197.177 137.886C197.522 138.099 197.859 138.319 198.2 138.547C199.847 139.636 201.438 140.822 202.961 142.104C202.968 142.111 202.975 142.114 202.978 142.121C203.248 142.349 203.518 142.579 203.784 142.814C204.026 143.023 204.267 143.24 204.505 143.453C204.604 143.545 204.707 143.637 204.807 143.733C204.984 143.897 205.162 144.063 205.339 144.23C206.333 145.171 207.295 146.161 208.218 147.191C209.546 148.664 210.799 150.223 211.971 151.87C211.974 151.877 211.978 151.877 211.981 151.884V151.888L211.985 151.891C212.035 151.962 212.084 152.03 212.13 152.101C213.249 153.684 214.289 155.349 215.247 157.085C215.929 158.321 216.554 159.574 217.125 160.838C217.182 160.962 217.239 161.09 217.296 161.214C217.388 161.423 217.48 161.636 217.569 161.846C217.573 161.853 217.576 161.857 217.576 161.864C217.949 162.737 218.297 163.617 218.62 164.498C218.996 165.52 219.334 166.546 219.642 167.576C220.065 168.989 220.424 170.409 220.722 171.836C221.112 173.703 221.396 175.581 221.581 177.463C221.716 178.837 221.797 180.211 221.822 181.581C221.826 181.666 221.826 181.748 221.826 181.829C221.875 185.074 221.623 188.312 221.077 191.496Z" fill="#849FFF"/>
<path d="M217.427 181.822C217.427 181.737 217.424 181.655 217.42 181.574C217.402 180.832 217.356 180.09 217.299 179.348C217.097 176.817 216.696 174.303 216.092 171.829C215.95 171.25 215.798 170.679 215.638 170.107C214.839 167.285 213.774 164.526 212.453 161.853C212.45 161.846 212.446 161.842 212.446 161.835C212.123 161.182 211.786 160.536 211.435 159.893C210.359 157.941 209.163 156.08 207.853 154.32C207.519 153.872 207.178 153.429 206.83 152.995C206.585 152.69 206.337 152.385 206.088 152.09C206.024 152.016 205.96 151.938 205.896 151.863C205.715 151.646 205.531 151.437 205.346 151.228C205.172 151.025 204.995 150.83 204.814 150.635C204.714 150.521 204.611 150.415 204.512 150.304C204.274 150.052 204.036 149.797 203.791 149.552C201.487 147.17 198.945 145.04 196.198 143.19C195.86 142.963 195.519 142.739 195.175 142.519C194.962 142.384 194.753 142.253 194.54 142.118C194.533 142.111 194.522 142.107 194.511 142.1C192.928 141.131 191.288 140.251 189.587 139.462C189.25 139.306 188.909 139.154 188.565 139.001C186.641 138.163 184.649 137.442 182.601 136.85C178.12 135.554 173.551 134.915 169.011 134.929C166.039 134.936 163.082 135.22 160.167 135.781C158.613 136.079 157.068 136.452 155.545 136.91C154.171 137.315 152.815 137.787 151.477 138.319H151.473C149.585 139.072 147.728 139.945 145.917 140.943C145.353 141.255 144.796 141.575 144.249 141.908C142.722 142.828 141.26 143.826 139.861 144.894C138.732 145.753 137.642 146.666 136.602 147.617C135.966 148.192 135.352 148.785 134.756 149.396C129.214 155.026 125.131 161.977 122.874 169.777C121.081 175.965 120.552 182.319 121.248 188.536C121.319 189.185 121.404 189.828 121.503 190.474C121.532 190.655 121.556 190.836 121.588 191.017C122.472 196.364 124.272 201.575 126.967 206.46C131.035 213.837 136.822 219.89 143.798 224.196C144.259 224.484 144.728 224.761 145.204 225.031C148.505 226.919 152.055 228.425 155.797 229.507C156.277 229.646 156.759 229.777 157.239 229.898C162.933 229.664 168.432 229.135 173.729 228.322C168.045 228.897 162.248 228.378 156.596 226.742C154.928 226.259 153.302 225.688 151.718 225.031C151.083 224.768 150.451 224.488 149.833 224.196C141.242 220.16 134.156 213.546 129.484 205.072C127.002 200.567 125.327 195.767 124.478 190.84C124.46 190.751 124.45 190.659 124.436 190.57C124.311 189.838 124.208 189.1 124.127 188.362C123.445 182.468 123.942 176.444 125.639 170.576C127.585 163.852 130.975 157.799 135.537 152.761C136.179 152.055 136.843 151.366 137.528 150.699C137.919 150.319 138.317 149.946 138.718 149.584C140.138 148.306 141.639 147.109 143.223 146.005C144.529 145.093 145.892 144.248 147.305 143.467C148.232 142.959 149.169 142.48 150.117 142.04C151.889 141.213 153.703 140.506 155.545 139.92C157.068 139.438 158.613 139.036 160.167 138.717C162.653 138.209 165.173 137.915 167.708 137.833C172.408 137.684 177.155 138.273 181.798 139.619C184.095 140.283 186.314 141.113 188.441 142.104C188.451 142.111 188.462 142.114 188.476 142.121C190.826 143.218 193.066 144.511 195.175 145.98C195.519 146.222 195.857 146.467 196.198 146.712C198.285 148.256 200.234 149.978 202.027 151.867C202.101 151.941 202.172 152.019 202.243 152.094C203.032 152.932 203.784 153.801 204.508 154.703C204.792 155.055 205.066 155.41 205.343 155.772C205.857 156.453 206.354 157.149 206.83 157.863C207.182 158.385 207.526 158.917 207.853 159.457C208.222 160.057 208.577 160.667 208.918 161.285C209.017 161.466 209.12 161.654 209.216 161.839C209.216 161.839 209.216 161.839 209.216 161.842C209.219 161.846 209.223 161.849 209.223 161.857C209.496 162.364 209.755 162.875 210.004 163.394C211.332 166.124 212.372 168.95 213.121 171.836C213.955 175.027 214.427 178.294 214.541 181.581C214.545 181.663 214.545 181.748 214.548 181.829C214.644 185.049 214.388 188.287 213.781 191.503C213.774 191.525 213.774 191.55 213.767 191.575C213.511 192.927 213.188 194.276 212.809 195.615C212.791 195.671 212.777 195.728 212.759 195.785C212.191 197.741 211.502 199.64 210.7 201.476C210.696 201.483 210.693 201.486 210.693 201.494C209.262 204.756 207.466 207.813 205.339 210.614C205.165 210.841 204.988 211.072 204.807 211.299C204.764 211.356 204.718 211.413 204.672 211.469C204.618 211.54 204.562 211.608 204.505 211.679C203.912 212.41 203.294 213.127 202.655 213.823C202.325 214.192 201.984 214.551 201.633 214.906C199.354 217.228 196.812 219.315 194.039 221.122C193.865 221.239 193.688 221.353 193.51 221.459C192.722 221.963 191.913 222.443 191.085 222.897C190.248 223.359 189.396 223.795 188.536 224.2C188.26 224.335 187.979 224.463 187.695 224.587C185.366 225.634 182.97 226.476 180.531 227.108C183.446 226.508 186.296 225.815 189.087 225.034C189.811 224.832 190.532 224.626 191.249 224.409C193.272 223.802 195.26 223.149 197.213 222.443C197.664 222.123 198.108 221.793 198.544 221.459C199.613 220.646 200.642 219.791 201.629 218.896C201.974 218.584 202.314 218.268 202.652 217.945C203.287 217.338 203.905 216.713 204.501 216.07C204.778 215.772 205.055 215.47 205.325 215.165C206.372 213.983 207.359 212.751 208.282 211.473C210.313 208.665 212.038 205.629 213.43 202.406C213.561 202.108 213.689 201.802 213.813 201.497C213.817 201.49 213.817 201.486 213.82 201.479C214.47 199.892 215.034 198.259 215.521 196.591C215.716 195.909 215.901 195.228 216.064 194.542C216.302 193.555 216.515 192.569 216.689 191.578C216.692 191.553 216.696 191.528 216.703 191.507C216.792 191.014 216.87 190.52 216.941 190.027C217.097 188.965 217.218 187.9 217.296 186.835C217.431 185.156 217.473 183.484 217.427 181.822Z" fill="#D5DEF9"/>
<path d="M46.8832 170.752C48.4221 169.213 48.4221 166.718 46.8832 165.179C45.3443 163.64 42.8492 163.64 41.3103 165.179C39.7714 166.718 39.7714 169.213 41.3103 170.752C42.8492 172.291 45.3443 172.291 46.8832 170.752Z" fill="#849FFF"/>
</g>
</svg>
