<svg width="285" height="218" viewBox="0 0 285 218" fill="none" xmlns="http://www.w3.org/2000/svg">
<mask id="mask0_6_52" style="mask-type:alpha" maskUnits="userSpaceOnUse" x="0" y="0" width="285" height="218">
<path d="M0 20C0 8.9543 8.95431 0 20 0H265C276.046 0 285 8.95431 285 20V88C285 159.797 226.797 218 155 218H130C58.203 218 0 159.797 0 88V20Z" fill="#E8F3FF"/>
</mask>
<g mask="url(#mask0_6_52)">
<rect width="285" height="370" rx="20" fill="#E8F3FF"/>
<path d="M179.921 165.208L170.215 178.413C169.172 177.369 167.937 176.422 166.633 175.571C161.196 172.016 154.278 170.095 152.177 169.189C149.569 168.063 139.657 161.708 135.045 158.839C130.419 155.971 124.859 153.102 124.461 151.194C124.063 149.286 127.563 146.582 131.009 148.174C134.455 149.767 150.653 153.431 154.154 153.98C157.545 154.502 161.993 156.19 162.253 156.286C161.951 155.971 157.915 151.812 156.529 147.227C155.087 142.451 159.878 141.49 161.938 144.359C164.011 147.227 169.268 153.582 172.92 156.3C173.483 156.726 174.046 157.22 174.608 157.783C177.546 160.789 179.921 165.208 179.921 165.208Z" fill="#E0ADA6"/>
<path d="M179.921 165.208L170.216 178.413C169.172 177.37 167.937 176.422 166.633 175.571C168.143 168.654 172.302 161.434 174.608 157.783C177.546 160.789 179.921 165.208 179.921 165.208Z" fill="#E0ADA6"/>
<path d="M214.021 92.4883C214.474 92.7766 215.435 93.6962 216.56 94.8629C219.224 97.6218 222.82 101.698 222.82 101.698C226.87 95.1374 238.319 89.1392 238.319 89.1392C236.987 87.0391 236.219 84.541 235.793 82.0566C234.75 75.9485 235.807 69.868 235.807 69.868L225.442 68.7287L221.571 79.6408C221.557 79.6408 212.483 91.5138 214.021 92.4883Z" fill="#E0ADA6"/>
<path d="M214.021 92.4882C214.474 92.7764 215.435 93.6961 216.56 94.8628C228.38 91.7744 230.673 82.2212 230.673 82.2212C232.059 82.7565 234.146 82.4545 235.793 82.0427C234.75 75.9347 235.807 69.8541 235.807 69.8541L225.442 68.7148L221.571 79.627C221.557 79.6407 212.483 91.5136 214.021 92.4882Z" fill="#E0ADA6"/>
<path d="M205.784 53.9596C205.784 53.9596 202.009 57.446 201.172 66.107C201.172 66.107 201.309 68.4816 202.146 69.5934C202.984 70.7052 202.984 70.7052 202.984 70.7052C202.984 70.7052 201.94 76.4976 200.65 79.229C200.403 79.7506 200.705 80.3546 201.268 80.4644L203.958 80.9722C203.958 80.9722 204.796 83.69 205.07 84.0468C205.345 84.39 207.926 84.541 207.926 84.541C207.926 84.541 206.251 85.5155 206.045 86.1469C205.839 86.7783 206.471 86.7097 206.745 87.547C207.02 88.3842 206.471 92.255 207.651 93.504C208.832 94.7668 216.931 95.1511 223.699 87.8215C230.467 80.4918 229.918 72.5994 229.918 72.5994L227.611 53.4105C227.625 53.3968 221.283 47.8927 205.784 53.9596Z" fill="#E0ADA6"/>
<path d="M235.024 73.6425C235.024 73.6425 228.037 81.384 225.113 78.4603L225.429 74.123L233.857 70.0875L235.024 73.6425Z" fill="#E0ADA6"/>
<path d="M208.681 46.5338C208.681 46.5338 202.188 46.424 198.632 48.73C195.077 51.0359 198.522 61.6049 209.834 57.4185C209.834 57.4185 213.074 60.3558 213.389 63.3893C213.705 66.4227 219.883 66.9443 219.883 66.9443C219.883 66.9443 221.448 73.5465 224.701 74.0681C227.941 74.5896 231.785 71.7895 231.785 71.7895C231.785 71.7895 229.547 77.9388 231.99 79.8329C234.434 81.7134 237.893 78.5702 239.033 70.8287C240.186 63.0873 237.935 51.1045 229.3 46.5338C222.175 42.7592 217.274 43.9671 215.256 44.7494C212.415 45.8612 208.681 46.5338 208.681 46.5338Z" fill="#081535"/>
<path d="M216.08 116.289L217.164 101.328C219.979 98.5139 222.958 95.7413 225.017 94.3275C230.11 90.8274 238.909 87.2724 238.909 87.2724L243.453 91.1157L244.263 95.2746L215.97 116.522L216.08 116.289Z" fill="white"/>
<path d="M186.373 255.594C187.567 234.264 195.9 158.853 197.287 150.494C199.167 139.088 204.302 127.585 207.802 121.217C211.303 114.848 221.489 103.071 230.041 97.3472C238.593 91.6235 243.453 91.1157 243.453 91.1157C266.996 113.352 272.172 132.952 272.501 155.353C272.721 170.973 274.011 243.652 272.515 261.674L186.373 255.594Z" fill="#081535"/>
<path d="M135.896 149.767C135.896 149.767 131.846 148.01 130.734 149.767C129.623 151.523 129.458 152.786 138.381 156.286C147.29 159.787 152.177 161.694 152.177 161.694" stroke="#B55A27" stroke-width="0.5" stroke-miterlimit="10" stroke-linecap="round" stroke-linejoin="round"/>
<path d="M126.108 148.49C126.108 148.49 123.569 150.727 131.05 154.543C138.532 158.359 149.514 164.412 149.514 164.412" stroke="#B55A27" stroke-width="0.5" stroke-miterlimit="10" stroke-linecap="round" stroke-linejoin="round"/>
<path d="M264.36 152.526C263.729 133.213 261.395 111.567 248.436 108.163C235.491 104.773 219.786 118.568 218.716 138.086C217.659 157.618 222.326 181.803 222.326 181.803C222.326 181.803 186.236 164.81 179.88 160.569C179.88 160.569 167.566 170.973 166.083 181.158C166.083 181.158 218.51 217.847 253.529 218.808C253.529 218.836 264.992 171.838 264.36 152.526Z" fill="#081535"/>
<path d="M264.36 152.525C263.729 133.213 261.395 111.567 248.436 108.163C235.491 104.773 225.401 119.734 224.344 139.266C223.287 158.798 222.326 181.817 222.326 181.817C222.326 181.817 186.236 164.824 179.88 160.583C179.88 160.583 167.566 170.987 166.083 181.172C166.083 181.172 218.51 217.861 253.529 218.822C253.529 218.836 264.992 171.838 264.36 152.525Z" stroke="#8797B1" stroke-width="0.5" stroke-miterlimit="10" stroke-linecap="round" stroke-linejoin="round"/>
<path d="M233.734 194.335C233.734 194.335 228.737 184.864 222.326 181.817C222.326 181.817 235.491 180.76 242.067 191.796" stroke="#8797B1" stroke-width="0.5" stroke-miterlimit="10" stroke-linecap="round" stroke-linejoin="round"/>
<path d="M224.385 70.4993C224.385 70.4993 227.707 63.4441 231.084 67.356C234.036 70.7601 229.204 79.1878 225.113 78.4603C225.113 78.4603 223.232 78.5289 224.385 70.4993Z" fill="#E0ADA6"/>
<path d="M230.659 69.5659C230.659 69.5659 229.931 68.0012 228.408 68.358C226.884 68.7149 225.429 71.7072 225.429 71.7072C225.429 71.7072 227.158 71.8582 226.994 73.3268C226.843 74.7955 225.786 75.2622 225.786 75.2622" stroke="#B55A27" stroke-width="0.5" stroke-miterlimit="10" stroke-linecap="round" stroke-linejoin="round"/>
<path d="M46.1165 122.287L67.6279 127.86C67.6279 127.86 66.9415 119.322 67.6279 117.058C67.7651 116.618 67.9436 116.138 68.1495 115.658C69.0555 113.599 70.4695 111.375 70.4695 111.375L60.2835 101.822L50.5505 102.728L46.1165 105.226C46.1165 105.226 48.2854 108.163 48.5188 112.748C48.6698 115.438 48.1344 118.705 46.1165 122.287Z" fill="#E0ADA6"/>
<path d="M46.1165 105.226C46.1165 105.226 48.2854 108.163 48.5188 112.748C54.0923 113.599 58.293 110.003 58.293 110.003C60.2698 112.226 64.6627 114.285 68.1495 115.658C69.0555 113.599 70.4695 111.375 70.4695 111.375L60.2835 101.822L50.5505 102.728L46.1165 105.226Z" fill="#E0ADA6"/>
<path d="M136.761 167.487L136.308 163.74L163.599 161.365L163.722 162.353L165.672 162.696L165.836 164L166.935 163.863L169.611 166.389L166.358 168.351L138.944 170.74L136.761 167.487Z" fill="#8BBCE8"/>
<path d="M27.4192 108.616C31.0708 103.579 33.4045 100.888 34.846 99.461L38.5525 103.249L38.6485 103.565C38.6485 103.565 41.1195 113.214 39.9252 117.346L39.4585 115.507C39.4585 115.507 39.4585 123.083 33.4869 129.905C27.5153 136.713 27.433 139.019 27.433 139.019C27.433 139.019 19.718 119.268 27.4192 108.616Z" fill="#2D5BE3"/>
<path d="M38.9643 95.8236C38.9643 95.8236 38.0308 96.0844 37.1248 97.1276C36.205 98.157 34.7773 98.3629 34.1596 99.4061C33.5418 100.436 37.4268 105.281 38.9643 105.034C40.5018 104.787 40.392 104.155 40.392 104.155C40.392 104.155 42.4374 103.634 42.4374 102.81C42.4374 101.987 38.9643 95.8236 38.9643 95.8236Z" fill="#295291"/>
<path d="M63.5233 78.0348C63.5233 78.0348 70.2362 79.2701 73.3661 85.5429C75.4527 89.7293 74.9036 92.0627 74.9036 92.0627L80.1751 95.9471C80.7379 96.3589 80.7654 97.1962 80.2163 97.6354L77.7864 99.6394L79.3377 101.918C79.5848 102.289 79.5848 102.769 79.324 103.126L78.2395 104.649L79.0769 105.596C79.3102 105.857 79.3926 106.214 79.3102 106.557L78.8435 108.424C78.8435 108.424 79.9005 110.565 78.6925 111.471C77.4844 112.377 67.3122 118.444 60.4895 104.951C53.6668 91.4588 53.2137 78.7074 53.2137 78.7074L63.5233 78.0348Z" fill="#E0ADA6"/>
<path d="M67.8475 82.9212C65.6648 87.4645 68.1907 90.8685 67.3945 95.8236C66.5983 100.779 63.688 104.416 66.914 110.002C66.914 110.002 61.5465 109.536 58.4989 100.614C55.4513 91.7058 51.6899 90.3195 51.6899 90.3195L53.2137 74.0542C53.2137 74.0405 73.6544 70.8561 67.8475 82.9212Z" fill="#2D5BE3"/>
<path d="M58.293 74.617C58.293 74.617 53.5157 71.9954 48.6149 73.0248C43.7141 74.0543 36.4384 80.08 37.5778 90.196C38.7172 100.326 44.6888 109.728 47.8736 110.84C51.0585 111.952 54.7512 101.561 54.7512 101.561L59.2677 98.6786L58.293 74.617Z" fill="#2D5BE3"/>
<path d="M41.3392 123.385C41.3392 123.385 49.9877 117.346 67.422 123.221C79.1729 127.174 85.1994 135.615 91.1161 147.516C97.0327 159.416 96.9641 180.554 98.0211 187.925C99.0782 195.296 109.237 221.142 109.237 221.142H27.8448C27.8448 221.142 26.4858 179.373 25.566 168.31C24.6462 157.247 24.5501 135.437 41.3392 123.385Z" fill="#295291"/>
<path d="M97.2936 205.453L101.92 203.668L108.77 198.096L143.666 169.738L140.55 168.187C140.55 168.187 137.296 166.444 136.308 163.74L93.2714 200.086C93.2714 200.086 93.4773 204.67 97.2936 205.453Z" fill="#2D5BE3"/>
<path opacity="0.5" d="M97.2935 205.453L101.92 203.668L108.77 198.096C103.265 199.358 97.2249 200.402 93.2576 200.086C93.2713 200.086 93.4772 204.67 97.2935 205.453Z" fill="#2D5BE3"/>
<path d="M97.2936 205.453C97.2936 205.453 115.387 201.637 120.754 199.262C126.136 196.888 126.891 195.584 126.891 195.584L155.746 182.544L156.323 182.283L170.174 166.43L140.55 168.173L104.871 198.919L97.2936 205.453Z" fill="#2D5BE3"/>
<path opacity="0.5" d="M97.2936 205.453C97.2936 205.453 115.387 201.637 120.754 199.262C126.136 196.888 126.891 195.584 126.891 195.584L155.746 182.544L155.472 179.964L156.419 176.656C156.419 176.656 150.557 176.628 145.835 179.524C141.113 182.421 131.956 182.283 121.894 194.513C121.894 194.513 113.286 197.272 104.858 198.933L97.2936 205.453Z" fill="#2D5BE3"/>
<path d="M163.722 162.34L143.007 164.289" stroke="#CED6ED" stroke-width="0.5" stroke-miterlimit="10" stroke-linecap="round" stroke-linejoin="round"/>
<path d="M166.948 163.863L165.822 163.959L140.879 166.224" stroke="#CED6ED" stroke-width="0.5" stroke-miterlimit="10" stroke-linecap="round" stroke-linejoin="round"/>
<path d="M37.111 97.1276C37.111 97.1276 36.4933 99.1316 39.4448 101.808" stroke="#2D5BE3" stroke-width="0.5" stroke-miterlimit="10" stroke-linecap="round" stroke-linejoin="round"/>
<path d="M53.2137 95.5492C54.3943 95.0825 55.4788 95.2472 56.3711 95.659C57.0849 96.9767 57.7987 98.5963 58.4989 100.614C59.2402 102.796 60.1325 104.471 61.0522 105.761C51.4702 107.491 50.0151 96.812 53.2137 95.5492Z" fill="#E0ADA6"/>
<path d="M53.2137 99.2139C53.7491 98.7061 54.4492 98.3629 55.1768 98.2394C55.9044 98.1159 57.1399 98.1708 57.6066 98.8571C57.9361 99.3375 57.7439 99.5296 57.3595 99.8042C56.8241 100.188 56.3437 100.353 56.1103 101.053C56.0417 101.245 56.0005 101.465 56.0279 101.671C56.0828 102.138 56.426 102.536 56.8379 102.742C57.2497 102.961 57.7302 103.03 58.1969 103.057" stroke="#B55A27" stroke-width="0.5" stroke-miterlimit="10" stroke-linecap="round" stroke-linejoin="round"/>
<path d="M126.63 196.009C129.046 199.139 132.231 203.86 133.741 208.678C134.386 208.019 135.182 207.21 136.061 206.359C137.434 205.013 138.957 203.586 140.33 202.433C143.858 199.482 147.276 199.152 148.429 197.492C151.532 193.031 157.476 188.982 157.531 186.113C157.586 183.23 156.556 182.928 156.556 182.928C156.556 182.928 159.027 179.593 157.243 177.438C155.458 175.283 149.651 178.852 147.414 181.322C145.615 183.299 137.818 182.393 130.446 190.697C129.156 192.152 127.879 193.909 126.63 196.009Z" fill="#E0ADA6"/>
<path d="M147.372 192.207C149.212 189.956 150.049 187.746 151.587 186.47C153.124 185.18 154.195 184.287 156.57 182.915" stroke="#B55A27" stroke-width="0.5" stroke-miterlimit="10" stroke-linecap="round" stroke-linejoin="round"/>
<path d="M126.63 196.009C129.046 199.139 132.231 203.861 133.741 208.678C134.386 208.019 135.182 207.21 136.061 206.359C135.498 200.443 132.423 194.184 130.446 190.697C129.156 192.152 127.879 193.909 126.63 196.009Z" fill="#E0ADA6"/>
<path d="M63.9351 130.55C63.9351 130.55 74.5055 129.054 80.1064 141.888C85.6936 154.722 91.3494 198.411 91.3494 198.411C91.3494 198.411 107.617 196.668 123.527 192.289C123.527 192.289 137.612 205.453 136.074 221.141H58.293C58.293 221.141 51.6625 166.457 51.9782 155.614C52.294 144.77 51.9233 131.305 63.9351 130.55Z" fill="#295291"/>
<path d="M58.6087 212.906C56.2613 196.462 51.7311 163.657 51.9782 155.614C52.294 144.77 51.9233 131.305 63.9351 130.537C63.9351 130.537 74.5055 129.04 80.1064 141.874C85.6936 154.708 91.3494 198.398 91.3494 198.398" stroke="#2D5BE3" stroke-width="0.5" stroke-miterlimit="10" stroke-linecap="round" stroke-linejoin="round"/>
<path d="M76.0979 209.9C79.8044 201.349 91.3494 198.398 91.3494 198.398C91.3494 198.398 86.9703 195.309 79.8318 197.739" stroke="#2D5BE3" stroke-width="0.5" stroke-miterlimit="10" stroke-linecap="round" stroke-linejoin="round"/>
<path d="M109.456 67.809H93.5047C83.8953 67.809 76.0979 60.0127 76.0979 50.4045C76.0979 40.7963 83.8953 33 93.5047 33H109.456C119.066 33 126.863 40.7963 126.863 50.4045C126.863 60.0127 119.066 67.809 109.456 67.809Z" fill="#2D5BE3"/>
<path d="M97.2936 63.3207L85.927 76.3878L107.205 64.6795L97.2936 63.3207Z" fill="#2D5BE3"/>
<path d="M176.407 131.978H160.455C150.846 131.978 143.048 124.181 143.048 114.573C143.048 104.965 150.846 97.1688 160.455 97.1688H176.407C186.016 97.1688 193.813 104.965 193.813 114.573C193.813 124.181 186.016 131.978 176.407 131.978Z" fill="#2D5BE3"/>
<path d="M184.794 102.961L196.161 89.894L174.883 101.616L184.794 102.961Z" fill="#2D5BE3"/>
</g>
</svg>
