<svg width="22" height="22" viewBox="0 0 22 22" fill="none" xmlns="http://www.w3.org/2000/svg">
<path d="M18.6819 0.919922H3.32187C1.99707 0.919922 0.921875 1.99512 0.921875 3.31992V18.6799C0.921875 20.0047 1.99707 21.0799 3.32187 21.0799H18.6819C20.0067 21.0799 21.0819 20.0047 21.0819 18.6799V3.31992C21.0819 1.99512 20.0067 0.919922 18.6819 0.919922ZM16.7619 8.11992H15.8019C14.7747 8.11992 14.3619 8.35992 14.3619 9.07992V10.5199H16.7619L16.2819 12.9199H14.3619V20.1199H11.9619V12.9199H10.0419V10.5199H11.9619V9.07992C11.9619 7.15992 12.9219 5.71992 14.8419 5.71992C16.2339 5.71992 16.7619 6.19992 16.7619 6.19992V8.11992Z" fill="#A3A5AB"/>
</svg>
