<svg width="23" height="23" viewBox="0 0 23 23" fill="none" xmlns="http://www.w3.org/2000/svg">
<path d="M21.0655 3.47464L18.7039 1.11304C18.092 0.501071 17.2911 0.115 16.4286 0.0246429V0H7.39286C6.03339 0 4.92857 1.10482 4.92857 2.46429V6.16071C4.92857 6.6125 5.29821 6.98214 5.75 6.98214C6.20179 6.98214 6.57143 6.6125 6.57143 6.16071V2.46429C6.57143 2.0125 6.94107 1.64286 7.39286 1.64286H15.6071V4.10714C15.6071 5.46661 16.712 6.57143 18.0714 6.57143H20.5357V20.5357C20.5357 20.9875 20.1661 21.3571 19.7143 21.3571H7.39286C6.94107 21.3571 6.57143 20.9875 6.57143 20.5357V19.3036H16.4286C17.788 19.3036 18.8929 18.1988 18.8929 16.8393V11.0893C18.8929 9.72982 17.788 8.625 16.4286 8.625H2.46429C1.10482 8.625 0 9.72982 0 11.0893V16.8393C0 18.1988 1.10482 19.3036 2.46429 19.3036H4.92857V20.5357C4.92857 21.8952 6.03339 23 7.39286 23H19.7143C21.0738 23 22.1786 21.8952 22.1786 20.5357V6.16071C22.1786 5.15446 21.7802 4.18518 21.0655 3.47464ZM18.0714 4.92857C17.6196 4.92857 17.25 4.55893 17.25 4.10714V2.05357C17.3527 2.12339 17.4513 2.20554 17.5416 2.29179L19.9073 4.6575C19.9854 4.74375 20.0593 4.83411 20.125 4.92857H18.0714ZM12.2146 12.2845C12.2146 12.2516 12.227 12.2188 12.2475 12.1941C12.268 12.1736 12.2927 12.1613 12.3214 12.1571H14.6132C14.683 12.1571 14.7405 12.2146 14.7405 12.2845V12.8061C14.7405 12.8389 14.7282 12.8718 14.7036 12.8964C14.6789 12.917 14.6461 12.9293 14.6132 12.9293H13.1429V13.6152H14.5516C14.6214 13.6152 14.6789 13.6727 14.6789 13.7425V14.2641C14.6789 14.297 14.6666 14.3298 14.642 14.3545C14.6173 14.375 14.5845 14.3873 14.5516 14.3873H13.1429V15.4839C13.1429 15.5168 13.1305 15.5455 13.11 15.5702C13.0854 15.5948 13.0525 15.6071 13.0196 15.6071H12.3214C12.2557 15.603 12.2023 15.5496 12.1982 15.4839L12.2146 12.2845ZM8.17732 12.2845C8.17732 12.2516 8.18964 12.2188 8.21018 12.1941C8.23482 12.1695 8.26768 12.1571 8.30054 12.1571H9.59839C10.005 12.1325 10.4075 12.2557 10.732 12.5063C11.0071 12.765 11.155 13.1264 11.1427 13.5043C11.1427 13.5988 11.1427 13.7261 11.1427 13.8821C11.1427 14.0382 11.1427 14.1655 11.1427 14.2559C11.1057 15.1554 10.6005 15.6071 9.62304 15.6071H8.30054C8.23482 15.603 8.18143 15.5496 8.17732 15.4839V12.2845ZM5.30232 14.4202V15.4839C5.30232 15.5168 5.29 15.5455 5.26946 15.5702C5.24482 15.5948 5.21196 15.6071 5.17911 15.6071H4.46446C4.39875 15.603 4.34536 15.5496 4.34125 15.4839V12.2845C4.34125 12.2516 4.35357 12.2188 4.37411 12.1941C4.39875 12.1695 4.43161 12.1571 4.46446 12.1571H5.86089C6.21821 12.1366 6.57554 12.2393 6.86714 12.4488C7.11768 12.6582 7.25321 12.9745 7.23268 13.303C7.24911 13.6193 7.11357 13.9232 6.86714 14.1245C6.57143 14.3257 6.21821 14.4243 5.86089 14.4038L5.30232 14.4202Z" fill="#2D5BE3"/>
</svg>
