<svg width="20" height="20" viewBox="0 0 20 20" fill="none" xmlns="http://www.w3.org/2000/svg">
<path d="M2.18 17.82C4.4 20.06 8.04 20.06 10.26 17.82L12.84 15.26C12.9 15.2 12.96 15.14 13.02 15.08C11.78 15.44 10.46 15.42 9.24 15.02L8.36 15.9C7.2 17.06 5.28 17.06 4.12 15.9C2.96 14.74 2.96 12.82 4.12 11.66L5 10.78L5.66 10.12L6.68 9.1C7.12 8.66 7.68 8.38 8.28 8.28C8.56 8.24 8.84 8.22 9.12 8.26C9.78 8.32 10.42 8.62 10.92 9.12C11.42 9.62 11.7 10.26 11.78 10.92C12.14 10.82 12.48 10.64 12.76 10.36L14.08 9.04C13.8 8.36 13.38 7.74 12.84 7.2C12.3 6.66 11.66 6.24 11 5.96C10.72 5.84 10.42 5.74 10.12 5.68C8.8 5.36 7.38 5.52 6.14 6.18C5.7 6.4 5.3 6.7 4.92 7.04C4.86 7.1 4.8 7.16 4.74 7.22L2.18 9.78C-0.0599995 11.96 -0.0599995 15.6 2.18 17.82ZM10.78 4.98L11.66 4.1C12.82 2.94 14.74 2.94 15.9 4.1C17.06 5.26 17.06 7.18 15.9 8.34L15.02 9.22L14.36 9.88L13.34 10.9C12.9 11.34 12.34 11.62 11.74 11.72C11.46 11.76 11.18 11.78 10.9 11.74C10.24 11.68 9.6 11.38 9.1 10.88C8.6 10.38 8.32 9.74 8.24 9.08C7.88 9.18 7.54 9.36 7.26 9.64L5.94 10.96C6.22 11.64 6.64 12.26 7.18 12.8C7.72 13.34 8.36 13.76 9.02 14.04C9.3 14.16 9.6 14.26 9.9 14.32C11.22 14.64 12.64 14.46 13.88 13.82C14.32 13.6 14.72 13.3 15.1 12.96C15.16 12.9 15.22 12.84 15.28 12.78L17.82 10.26C20.06 8.04 20.06 4.4 17.82 2.18C15.58 -0.0599995 11.96 -0.0599995 9.72 2.18L7.16 4.74C7.1 4.8 7.04 4.86 6.98 4.92C8.22 4.58 9.56 4.58 10.78 4.98Z" fill="#2D5BE3"/>
</svg>
