<svg width="20" height="20" viewBox="0 0 20 20" fill="none" xmlns="http://www.w3.org/2000/svg">
<path d="M2 1.46378e-06C0.894999 1.46378e-06 0 0.895002 0 2V15C0 15.552 0.448 16 1 16C1.552 16 2 15.552 2 15V2H15C15.552 2 16 1.552 16 1C16 0.448001 15.552 0 15 0L2 1.46378e-06ZM6 4C4.895 4 4 4.895 4 6V18C4 19.105 4.895 20 6 20H18C19.105 20 20 19.105 20 18V6C20 4.895 19.105 4 18 4H6ZM15 6.00196C15.768 6.00196 16.5361 6.29391 17.1211 6.87891C17.6881 7.44491 18 8.199 18 9C18 9.801 17.6881 10.5541 17.1211 11.1211L15.8789 12.3652C15.6839 12.5602 15.4279 12.6582 15.1719 12.6582C14.9159 12.6582 14.6598 12.5602 14.4648 12.3652C14.0738 11.9742 14.0738 11.3422 14.4648 10.9512L15.707 9.70703C15.896 9.51703 16 9.267 16 9C16 8.733 15.896 8.48197 15.707 8.29297C15.316 7.90197 14.684 7.90297 14.293 8.29297L13.0215 9.56445C12.6305 9.95545 11.9984 9.95545 11.6074 9.56445C11.2164 9.17345 11.2164 8.54139 11.6074 8.15039L12.8789 6.87891C13.4639 6.29391 14.232 6.00195 15 6.00195L15 6.00196ZM12.373 10.627C12.6288 10.627 12.8846 10.7244 13.0801 10.9199C13.4711 11.3109 13.4711 11.943 13.0801 12.334L12.332 13.0801C12.137 13.2751 11.883 13.373 11.627 13.373C11.371 13.373 11.1149 13.2751 10.9199 13.0801C10.5289 12.6891 10.5289 12.059 10.9199 11.668L11.666 10.9199C11.8615 10.7244 12.1173 10.627 12.373 10.627V10.627ZM8.84961 11.3223C9.10536 11.3223 9.36114 11.4197 9.55664 11.6152C9.94764 12.0062 9.94764 12.6383 9.55664 13.0293L8.29297 14.293C8.10397 14.482 8 14.733 8 15C8 15.267 8.10397 15.518 8.29297 15.707C8.67197 16.086 9.32803 16.085 9.70703 15.707L10.9707 14.4434C11.3617 14.0524 11.9938 14.0524 12.3848 14.4434C12.7758 14.8344 12.7748 15.4674 12.3848 15.8574L11.1211 17.1211C10.5551 17.6881 9.801 18 9 18C8.199 18 7.44491 17.6881 6.87891 17.1211C6.31291 16.5551 6 15.801 6 15C6 14.199 6.3129 13.4459 6.87891 12.8789L8.14258 11.6152C8.33808 11.4197 8.59386 11.3223 8.84961 11.3223V11.3223Z" fill="#A3A5AB"/>
</svg>
