<svg width="28" height="13" viewBox="0 0 28 13" fill="none" xmlns="http://www.w3.org/2000/svg">
<path d="M13.793 5.22025L1.47854 5.22025C0.641158 5.22025 0.000820233 5.83389 0.00082016 6.63634C0.000820087 7.43879 0.641158 8.05243 1.47854 8.05243L13.793 8.05243C14.6303 8.05243 15.2707 7.43879 15.2707 6.63634C15.2707 5.83389 14.6303 5.22025 13.793 5.22025Z" fill="#2D5BE3"/>
<path d="M6.40428 0.5C6.01022 0.5 5.66542 0.641611 5.36987 0.924827L0.444134 5.64511C-0.146957 6.21154 -0.146957 7.10839 0.444134 7.62762L5.36987 12.3479C5.96096 12.9143 6.89686 12.9143 7.4387 12.3479C8.02979 11.7815 8.02979 10.8846 7.4387 10.3654L3.54734 6.63636L7.4387 2.90734C8.02979 2.34091 8.02979 1.44406 7.4387 0.924825C7.14315 0.641608 6.79834 0.5 6.40428 0.5Z" fill="#2D5BE3"/>
<path d="M16.5705 6.63636C16.5705 7.38948 17.1762 8 17.9235 8C18.6707 8 19.2764 7.38948 19.2764 6.63636C19.2764 5.88325 18.6707 5.27273 17.9235 5.27273C17.1762 5.27273 16.5705 5.88325 16.5705 6.63636Z" fill="#2D5BE3"/>
<path d="M20.4972 6.63636C20.4972 7.38948 21.1029 8 21.8502 8C22.5974 8 23.2031 7.38948 23.2031 6.63636C23.2031 5.88325 22.5974 5.27273 21.8502 5.27273C21.1029 5.27273 20.4972 5.88325 20.4972 6.63636Z" fill="#2D5BE3"/>
<path d="M24.3957 6.63636C24.3957 7.38948 25.0014 8 25.7486 8C26.4958 8 27.1016 7.38948 27.1016 6.63636C27.1016 5.88325 26.4958 5.27273 25.7486 5.27273C25.0014 5.27273 24.3957 5.88325 24.3957 6.63636Z" fill="#2D5BE3"/>
</svg>
