<svg width="22" height="22" viewBox="0 0 22 22" fill="none" xmlns="http://www.w3.org/2000/svg">
<path d="M18.678 0.919922H3.31797C1.99317 0.919922 0.917969 1.99512 0.917969 3.31992V18.6799C0.917969 20.0047 1.99317 21.0799 3.31797 21.0799H18.678C20.0028 21.0799 21.078 20.0047 21.078 18.6799V3.31992C21.078 1.99512 20.0028 0.919922 18.678 0.919922ZM17.1036 14.8399L15.3132 14.8351C15.3132 14.8351 15.2748 14.8399 15.2124 14.8399C15.0684 14.8399 14.7708 14.8015 14.4204 14.5615C13.7916 14.1247 13.1916 13.0399 12.7164 13.0399C12.6828 13.0399 12.654 13.0447 12.6252 13.0543C12.2124 13.1839 12.0876 13.5967 12.0876 14.1007C12.0876 14.2783 11.9628 14.3599 11.6268 14.3599H10.7004C9.66357 14.3599 8.66037 14.3359 7.53237 13.1023C5.87157 11.2831 4.31637 8.04792 4.31637 8.04792C4.31637 8.04792 4.22997 7.86072 4.32117 7.75032C4.40757 7.64952 4.60917 7.63992 4.68597 7.63992C4.70517 7.63992 4.71477 7.63992 4.71477 7.63992H6.63477C6.63477 7.63992 6.81237 7.67352 6.94197 7.76952C7.05237 7.85112 7.10997 7.99992 7.10997 7.99992C7.10997 7.99992 7.43637 8.63352 7.84437 9.34872C8.53077 10.5295 8.90037 10.9231 9.16437 10.9231C9.20757 10.9231 9.25077 10.9135 9.29397 10.8895C9.68757 10.6735 9.57237 8.92632 9.57237 8.92632C9.57237 8.92632 9.57717 8.29272 9.37077 8.01432C9.21237 7.79352 8.90997 7.73112 8.77557 7.71192C8.66997 7.69752 8.84277 7.44792 9.07317 7.33272C9.37077 7.18872 9.86517 7.15992 10.4604 7.15992H10.7484C11.31 7.16952 11.3244 7.22712 11.5452 7.27992C12.2076 7.43832 11.982 8.05752 11.982 9.54072C11.982 10.0159 11.8956 10.6831 12.2364 10.9087C12.2604 10.9231 12.294 10.9327 12.3372 10.9327C12.558 10.9327 13.0332 10.6495 13.7916 9.36792C14.214 8.63832 14.5404 7.91352 14.5404 7.91352C14.5404 7.91352 14.6124 7.78392 14.7228 7.71672C14.8284 7.65432 14.8284 7.65432 14.9676 7.65432H14.982C15.1356 7.65432 16.662 7.63992 16.998 7.63992H17.0364C17.358 7.63992 17.6508 7.64472 17.7036 7.84152C17.7804 8.13912 17.4684 8.67192 16.6476 9.77592C15.294 11.5855 15.1404 11.4511 16.2636 12.4975C17.3388 13.4959 17.5596 13.9807 17.598 14.0431C18.0444 14.7823 17.1036 14.8399 17.1036 14.8399Z" fill="#A3A5AB"/>
</svg>
