<svg width="62" height="72" viewBox="0 0 62 72" fill="none" xmlns="http://www.w3.org/2000/svg">
<circle cx="32.5" cy="42.5" r="29.5" fill="#FFA569"/>
<path d="M44 15V17.1429H26.4C25.806 17.1429 25.256 16.9286 24.838 16.5214C24.42 16.1143 24.2 15.5786 24.2 15V0.235714C24.2 0.15 24.2 0.0857143 24.2 0H26.4C26.84 0 27.258 0.128571 27.632 0.364286L27.962 0.621429L43.01 13.1786L43.362 13.4571C43.78 13.8643 44 14.4214 44 15ZM26.4 19.2857H44V54.8571C43.978 57.6857 41.624 59.9786 38.72 60H5.28C2.376 59.9786 0.022 57.6857 0 54.8571V5.14286C0.022 2.31429 2.376 0.0214286 5.28 0H22C21.978 0.0857143 21.978 0.15 22 0.235714V15C22 17.3571 23.98 19.2857 26.4 19.2857ZM33 45C33 43.8214 32.01 42.8571 30.8 42.8571H13.2C11.99 42.8571 11 43.8214 11 45C11 46.1786 11.99 47.1429 13.2 47.1429H30.8C32.01 47.1429 33 46.1786 33 45ZM33 36.4286C33 35.25 32.01 34.2857 30.8 34.2857H13.2C11.99 34.2857 11 35.25 11 36.4286C11 37.6071 11.99 38.5714 13.2 38.5714H30.8C32.01 38.5714 33 37.6071 33 36.4286ZM30.8 25.7143H13.2C11.99 25.7143 11 26.6786 11 27.8571C11 29.0357 11.99 30 13.2 30H30.8C32.01 30 33 29.0357 33 27.8571C33 26.6786 32.01 25.7143 30.8 25.7143Z" fill="white"/>
</svg>
