<svg width="71" height="72" viewBox="0 0 71 72" fill="none" xmlns="http://www.w3.org/2000/svg">
<circle cx="41.5" cy="42.5" r="29.5" fill="#FFA569"/>
<path d="M38.072 34.2953L36.452 33.5527C35.2369 34.7004 33.6168 35.3755 31.8617 35.3755C30.1066 35.3755 28.4866 34.7004 27.2715 33.5527L25.6514 34.2953C23.7613 35.1055 22.4788 36.9283 22.2087 38.9536C24.3688 41.9916 27.9465 44.0169 31.9967 44.0169C35.8444 44.0169 39.3546 42.1941 41.5147 39.2911C41.3797 37.1308 40.0971 35.173 38.072 34.2953Z" fill="white"/>
<path d="M31.8617 33.0802C34.546 33.0802 36.722 30.5412 36.722 27.4093C36.722 24.2773 34.546 21.7384 31.8617 21.7384C29.1775 21.7384 27.0015 24.2773 27.0015 27.4093C27.0015 30.5412 29.1775 33.0802 31.8617 33.0802Z" fill="white"/>
<path d="M61.9682 26.8017L55.7578 26.1266C55.0153 26.0591 54.4078 25.519 54.2053 24.8439C53.8002 23.6287 53.3277 22.481 52.7877 21.4008C52.4502 20.7257 52.5177 19.9831 52.9902 19.3755L56.9054 14.5148C57.6479 13.5696 57.5804 12.2194 56.7704 11.4093L52.7202 7.35865C51.8426 6.48101 50.4926 6.4135 49.615 7.22363L44.6873 11.0717C44.0797 11.5443 43.3372 11.6118 42.6622 11.2743C41.5821 10.7342 40.3671 10.1941 39.2195 9.85654C38.477 9.65401 38.0044 9.04641 37.9369 8.3038L37.2619 2.09283C37.1269 0.877637 36.1143 0 34.8993 0H29.094C27.8789 0 26.8664 0.877637 26.7314 2.09283L26.0563 8.3038C25.9888 9.04641 25.4488 9.65401 24.7738 9.85654C23.5587 10.2616 22.4111 10.7342 21.3311 11.2743C20.656 11.6118 19.9135 11.5443 19.306 11.0717L14.4457 7.15612C13.5007 6.4135 12.1506 6.48101 11.3406 7.29114L7.29037 11.3418C6.41283 12.2194 6.34532 13.5696 7.15536 14.4473L11.0706 19.308C11.5431 19.8481 11.6106 20.6582 11.2731 21.3333C10.733 22.481 10.2605 23.6287 9.8555 24.7764C9.65299 25.4515 9.04546 25.9916 8.30292 26.0591L2.09261 26.7342C0.877545 26.8692 0 27.8819 0 29.097V34.903C0 36.1181 0.877545 37.1308 2.09261 37.2658L8.30292 37.9409C9.04546 38.0084 9.65299 38.5485 9.8555 39.2236C10.2605 40.4388 10.733 41.5865 11.2731 42.6667C11.6106 43.3418 11.5431 44.0844 11.0706 44.692L7.15536 49.5527C6.41283 50.4979 6.48033 51.8481 7.29037 52.6582L11.3406 56.7089C12.2181 57.5865 13.5682 57.654 14.4457 56.8439L19.306 52.9283C19.846 52.4557 20.656 52.3882 21.3311 52.7257C22.4786 53.2658 23.6262 53.7384 24.7738 54.1435C25.4488 54.346 25.9888 54.9536 26.0563 55.6962L26.7314 61.9072C26.8664 63.1224 27.8789 64 29.094 64H34.8993C36.1143 64 37.1269 63.1224 37.2619 61.9072L37.9369 55.6962C38.0044 54.9536 38.5445 54.346 39.2195 54.1435C40.4346 53.7384 41.5821 53.2658 42.6622 52.7257C43.3372 52.3882 44.0797 52.4557 44.6873 52.9283L49.5475 56.8439C50.4926 57.5865 51.8426 57.519 52.6527 56.7089L56.7029 52.6582C57.5804 51.7806 57.6479 50.4304 56.8379 49.5527L52.9227 44.692C52.4502 44.1519 52.3827 43.3418 52.7202 42.6667C53.2602 41.519 53.7327 40.3713 54.1377 39.2236C54.3403 38.5485 54.9478 38.0084 55.6903 37.9409L61.9006 37.2658C63.1157 37.1308 63.9933 36.1181 63.9933 34.903V29.097C64.0608 27.8819 63.1832 26.9367 61.9682 26.8017ZM31.9966 46.9198C23.7612 46.9198 17.0784 40.2363 17.0784 32C17.0784 23.7637 23.7612 17.0802 31.9966 17.0802C40.232 17.0802 46.9149 23.7637 46.9149 32C46.9149 40.2363 40.232 46.9198 31.9966 46.9198Z" fill="white"/>
</svg>
