<svg width="82" height="73" viewBox="0 0 82 73" fill="none" xmlns="http://www.w3.org/2000/svg">
<circle cx="52.5" cy="43.2007" r="29.5" fill="#648AFB"/>
<path d="M3.5945 46.7907H42.8089C39.2429 42.4778 38.1586 36.5879 39.9513 31.2617C39.1336 31.3528 38.3128 31.3984 37.4906 31.3999H34.4922C34.1837 32.7323 33.0124 33.6741 31.663 33.6772H26.2548C24.9054 33.6741 23.7342 32.7323 23.4256 31.3999H20.4287C11.5398 31.3893 3.50763 26.0175 0 17.7319V43.1447C0.00149771 45.1576 1.61003 46.7892 3.5945 46.7907Z" fill="white"/>
<path d="M46.2297 49.8929L39.2833 64.5074L43.8708 61.4508C44.2857 61.1743 44.8428 61.2913 45.1154 61.7121C45.1963 61.8367 45.2457 61.981 45.2592 62.1299L45.7609 67.7007L53.0862 52.4497C50.6359 52.1519 48.2875 51.2769 46.2297 49.8929Z" fill="white"/>
<path d="M26.2547 28.8948H31.6629C32.277 28.8948 32.7742 29.3992 32.7742 30.022V30.7269C32.7742 31.3498 32.277 31.8542 31.6629 31.8542H26.2547C25.6407 31.8542 25.1434 31.3498 25.1434 30.7269V30.022C25.1434 29.3992 25.6407 28.8948 26.2547 28.8948Z" fill="white"/>
<path d="M18.9999 1.84125V3.52602H38.9164V1.84125C38.9164 0.824915 38.1031 0.00151918 37.1012 0H20.8151C19.8131 0.00151918 19.0014 0.824915 18.9999 1.84125Z" fill="white"/>
<path d="M20.4271 29.5754H23.382C23.5992 28.1367 24.8183 27.0733 26.2546 27.0703H31.6629C33.0977 27.0733 34.3168 28.1367 34.534 29.5754H37.4889C38.5823 29.5754 39.6741 29.4873 40.7539 29.3126C43.3554 23.997 48.6259 20.5591 54.4744 20.3661C56.7105 16.9859 57.9087 13.0072 57.9162 8.93581C57.8817 6.94721 56.2837 5.35207 54.3232 5.34903H3.59434C1.62785 5.35207 0.0283015 6.9548 0.00134277 8.94797C0.0507671 20.3312 9.19427 29.5754 20.4271 29.5754Z" fill="white"/>
<path d="M56.5592 20.436C57.0175 20.4816 57.4713 20.5484 57.9176 20.6335V17.744C57.5237 18.6722 57.0699 19.5716 56.5592 20.436Z" fill="white"/>
<path d="M55.7969 52.5423L62.3688 67.6931L63.0727 62.1557C63.1356 61.6559 63.5864 61.3035 64.0792 61.3688C64.226 61.3885 64.3652 61.4432 64.4851 61.5298L68.9572 64.7566L62.8001 50.4671C60.6584 51.7053 58.2591 52.4163 55.7969 52.5423Z" fill="white"/>
<path d="M54.9763 22.18C47.2017 22.18 40.8978 28.5743 40.8978 36.4603C40.8978 44.3464 47.2017 50.7406 54.9763 50.7406C62.7508 50.7406 69.0547 44.3464 69.0547 36.4603C69.0457 28.5773 62.7479 22.1891 54.9763 22.18ZM54.9763 47.997C48.6949 47.997 43.6027 42.8318 43.6027 36.4603C43.6027 30.0889 48.6949 24.9237 54.9763 24.9237C61.2576 24.9237 66.3498 30.0889 66.3498 36.4603C66.3423 42.8287 61.2546 47.9894 54.9763 47.997Z" fill="white"/>
<path d="M54.9765 26.7467C49.6881 26.7467 45.4001 31.0961 45.4001 36.4603C45.4001 41.8245 49.6881 46.174 54.9765 46.174C60.2649 46.174 64.5528 41.8245 64.5528 36.4603C64.5468 31.0976 60.2634 26.7528 54.9765 26.7467ZM60.166 33.8823L53.8113 40.3281C53.4608 40.6836 52.8917 40.6836 52.5412 40.3281L49.7869 37.5344C49.441 37.1743 49.4484 36.597 49.8049 36.2461C50.1539 35.9013 50.7095 35.9013 51.0585 36.2461L53.1777 38.3958L58.896 32.5955C59.2509 32.2446 59.8201 32.2522 60.166 32.6122C60.506 32.9647 60.506 33.5283 60.166 33.8823Z" fill="white"/>
</svg>
