<svg width="75" height="74" viewBox="0 0 75 74" fill="none" xmlns="http://www.w3.org/2000/svg">
<circle cx="45.5" cy="43.9708" r="29.5" fill="#648AFB"/>
<path d="M46.5051 42.4023C46.5051 43.0494 45.9796 43.5788 45.3372 43.5788H35.6438C22.3066 43.5788 9.81022 37.0255 2.16058 26.0132L0 22.9071C2.06715 42.6729 18.6044 57.6854 38.3299 57.709H45.3372C45.9796 57.709 46.5051 58.2384 46.5051 58.8855V63.6387L64.362 50.6498L46.5051 37.6491V42.4023Z" fill="white"/>
<path d="M18.4757 21.2247C18.4757 20.5776 19.0013 20.0481 19.6436 20.0481H29.337C42.6743 20.0599 55.1706 26.6132 62.8202 37.6138L64.9808 40.7316C62.9137 20.9658 46.3881 5.95326 26.6509 5.92973H19.6436C19.0013 5.92973 18.4757 5.40029 18.4757 4.75319V0L0.618774 12.9889L18.4757 25.9779V21.2247Z" fill="white"/>
</svg>
