<svg width="59" height="59" viewBox="0 0 59 59" fill="none" xmlns="http://www.w3.org/2000/svg">
<circle cx="29.5" cy="29.5" r="29.5" fill="#ECF2F9"/>
<path fill-rule="evenodd" clip-rule="evenodd" d="M23.8008 16H33.8896L39.7062 21.802V39.3902C39.7062 40.5869 38.725 41.5661 37.5252 41.5661H34.1095L33.8971 40.9998L21.6194 33.9291V18.1756C21.6194 16.9792 22.601 16 23.8008 16ZM16.0263 33.3986C16.3062 32.9148 16.9322 32.7476 17.4168 33.0268L19.3211 34.1236L17.4126 37.4212L15.5083 36.3244C15.0233 36.0451 14.8556 35.421 15.1356 34.9373L16.0263 33.3986ZM20.128 34.5882L32.8288 41.9024L33.8815 44.7074L30.9199 45.2L18.2194 37.8858L20.128 34.5882ZM23.7326 30.8539C23.7326 30.1905 24.2704 29.6527 24.9338 29.6527H36.3918C37.0552 29.6527 37.593 30.1905 37.593 30.8539C37.593 31.5173 37.0552 32.0551 36.3918 32.0551H24.9338C24.2704 32.0551 23.7326 31.5173 23.7326 30.8539ZM23.7326 26.4569C23.7326 25.7934 24.2705 25.2555 24.934 25.2555H36.3917C37.0552 25.2555 37.593 25.7934 37.593 26.4569C37.593 27.1204 37.0552 27.6582 36.3917 27.6582H24.934C24.2705 27.6582 23.7326 27.1204 23.7326 26.4569ZM37.8545 21.8746C37.8545 22.4519 37.3813 22.924 36.8025 22.924H33.6466C33.0679 22.924 32.5946 22.4519 32.5946 21.8746V18.7266C32.5946 18.1493 33.0679 17.6773 33.6466 17.6773L37.8545 21.8746Z" fill="#2D5BE3"/>
</svg>
