<svg width="59" height="59" viewBox="0 0 59 59" fill="none" xmlns="http://www.w3.org/2000/svg">
<circle cx="29.5" cy="29.5" r="29.5" fill="#ECF2F9"/>
<path d="M20.9351 37.2385C20.7295 37.2385 20.5239 37.074 20.5239 36.8272V35.7991C20.5239 35.5935 20.6884 35.3878 20.9351 35.3878H30.2708C31.6279 34.3185 33.3141 33.6605 35.1648 33.6605C36.2341 33.6605 37.3034 33.8662 38.2493 34.2774V17.9503C38.2493 17.0867 37.5501 16.3464 36.6453 16.3464H34.3834V17.9915C34.3834 19.1841 33.3964 20.1711 32.2037 20.1711H21.9222C20.7295 20.1711 19.7425 19.1841 19.7425 17.9915V16.3464H17.6039C16.6991 16.3464 16 17.0867 16 17.9503V40.2818C16 41.1455 16.6991 41.8858 17.6039 41.8858H27.392C27.392 41.7213 27.392 41.5979 27.392 41.4745C27.392 39.9528 27.8443 38.4723 28.6257 37.2796H20.9351V37.2385ZM20.5239 24.8595C20.5239 24.6539 20.6884 24.4483 20.9351 24.4483H33.3552C33.602 24.4483 33.7665 24.6128 33.7665 24.8595V25.8877C33.7665 26.1344 33.602 26.2989 33.3552 26.2989H20.9351C20.7295 26.2989 20.5239 26.1344 20.5239 25.8877V24.8595ZM20.5239 30.3293C20.5239 30.0825 20.6884 29.918 20.9351 29.918H33.3552C33.602 29.918 33.7665 30.0825 33.7665 30.3293V31.3575C33.7665 31.5631 33.602 31.7687 33.3552 31.7687H20.9351C20.7295 31.7687 20.5239 31.6042 20.5239 31.3575V30.3293Z" fill="#2D5BE3"/>
<path d="M21.9629 18.6906H32.2445C32.6557 18.6906 32.9847 18.3616 32.9847 17.9503V15.0304C32.9847 14.6191 32.6557 14.2901 32.2445 14.2901H30.5583C30.476 12.4394 28.9544 11 27.1037 11C25.253 11 23.7725 12.4805 23.6491 14.2901H21.9629C21.5517 14.2901 21.2227 14.6191 21.2227 15.0304V17.9503C21.2227 18.3616 21.5517 18.6906 21.9629 18.6906ZM27.0626 13.1797C27.8028 13.1797 28.3786 13.7555 28.3786 14.4957C28.3786 15.236 27.8028 15.8118 27.0626 15.8118C26.3223 15.8118 25.7465 15.236 25.7465 14.4957C25.7465 13.7555 26.3634 13.1797 27.0626 13.1797Z" fill="#2D5BE3"/>
<path d="M43.2258 47.1088L40.1003 44.5589C40.676 43.6542 41.005 42.5849 41.005 41.4333C41.005 38.2255 38.373 35.5934 35.1651 35.5934C31.9573 35.5934 29.3252 38.2255 29.3252 41.4333C29.3252 44.6412 31.9573 47.2733 35.1651 47.2733C36.3166 47.2733 37.3859 46.9443 38.2907 46.3685L40.8405 49.4941C40.9228 49.5763 41.005 49.6586 41.0873 49.7408C41.8276 50.3166 42.8968 50.2343 43.4726 49.4941C44.0484 48.7538 43.9661 47.6845 43.2258 47.1088ZM31.1759 41.4333C31.1759 39.2125 32.9854 37.4441 35.1651 37.4441C37.3448 37.4441 39.1544 39.2537 39.1544 41.4333C39.1544 43.6542 37.3448 45.4226 35.1651 45.4226C32.9854 45.4226 31.1759 43.6542 31.1759 41.4333Z" fill="#2D5BE3"/>
<path d="M36.0691 39.9117L34.6297 41.5567L34.095 40.981C33.8071 40.652 33.3136 40.6108 33.0257 40.8987C32.6967 41.1866 32.6556 41.6801 32.9435 41.968L34.0539 43.2018C34.2184 43.3663 34.424 43.4485 34.6297 43.4485C34.8353 43.4485 35.0821 43.3663 35.2054 43.2018L37.2206 40.8987C37.5085 40.5697 37.4674 40.0762 37.1384 39.8294C36.8505 39.5827 36.357 39.5827 36.0691 39.9117Z" fill="#2D5BE3"/>
</svg>
