<svg width="59" height="59" viewBox="0 0 59 59" fill="none" xmlns="http://www.w3.org/2000/svg">
<circle cx="29.5" cy="29.5" r="29.5" fill="#ECF2F9"/>
<path d="M41.7665 15H17.4335C16.095 15 15 16.0954 15 17.4335V41.7669C15 43.1046 16.095 44.2 17.4335 44.2H41.7669C43.1046 44.2 44.2 43.1046 44.2 41.7665V17.4335C44.2 16.0954 43.1046 15 41.7665 15ZM18.65 22.9084H21.6915V19.8669H24.125V22.9084H27.1665V25.3419H24.125V28.3834H21.6915V25.3419H18.65V22.9084ZM18.65 32.0334H30.8165V34.4665H18.65V32.0334ZM25.95 39.3334H18.65V36.9H25.95V39.3334ZM38.1165 39.3334H28.3834V36.9H38.1169V39.3334H38.1165ZM40.55 34.4665H33.25V32.0334H40.55V34.4665ZM40.55 25.3415C40.55 26.6128 39.7776 27.7655 38.5301 28.5995C37.8935 29.0247 37.1328 29.3646 36.2915 29.6C35.4491 29.3646 34.6899 29.0247 34.053 28.5995C32.8054 27.7655 32.0334 26.6128 32.0334 25.3415V19.8665H40.55V25.3415Z" fill="#2D5BE3"/>
</svg>
