<svg width="59" height="59" viewBox="0 0 59 59" fill="none" xmlns="http://www.w3.org/2000/svg">
<circle cx="29.5" cy="29.5" r="29.5" fill="#ECF2F9"/>
<path d="M24.6538 11C24.0599 11 23.5509 11.5106 23.5509 12.1064V16.0638C23.5509 16.7021 24.0599 17.1702 24.6962 17.1702H34.0288C34.6651 17.1702 35.1317 16.6596 35.1317 16.0638V12.1489C35.1317 11.5106 34.6226 11 33.9863 11H24.6538ZM17.1454 12.9574C16.509 12.9574 16 13.4681 16 14.1064V45.8936C16 46.5319 16.509 47 17.1454 47H41.5372C42.1735 47 42.6401 46.4894 42.6401 45.8936V14.1064C42.6401 13.4681 42.1311 12.9574 41.5372 12.9574H37.38V16.0638C37.38 17.8936 35.8528 19.4255 34.0288 19.4255H24.6962C22.8721 19.4255 21.3026 17.8936 21.3026 16.0638V12.9574H17.1454ZM29.3201 23.2128C34.2833 23.2128 38.3132 27.2553 38.3132 32.234C38.3132 37.2128 34.2833 41.2553 29.3201 41.2553C24.3569 41.2553 20.3269 37.2128 20.3269 32.234C20.3269 27.2553 24.3569 23.2128 29.3201 23.2128ZM29.3201 25.4681C25.5871 25.4681 22.5328 28.4894 22.5328 32.2766C22.5328 36.0213 25.5446 39.0851 29.3201 39.0851C33.0531 39.0851 36.1074 36.0638 36.1074 32.2766C36.1074 28.4894 33.0955 25.4681 29.3201 25.4681ZM33.0107 29.1277C34.0712 29.1702 34.4954 30.5319 33.6046 31.1702L28.0475 35.1702C27.5384 35.5532 26.8173 35.4255 26.4355 34.9149L24.7386 32.4894C23.8478 31.2553 25.7567 29.8936 26.6052 31.2128L27.6657 32.7021L32.3319 29.3404C32.5016 29.2128 32.7137 29.1277 32.9258 29.1277C32.9258 29.1277 32.9682 29.0851 33.0107 29.1277Z" fill="#2D5BE3"/>
</svg>
