<svg width="59" height="59" viewBox="0 0 59 59" fill="none" xmlns="http://www.w3.org/2000/svg">
<circle cx="29.5" cy="29.5" r="29.5" fill="#ECF2F9"/>
<path d="M39.7638 21.6524C35.9284 21.6372 32.4277 20.5879 29.6234 18.6109C26.8435 20.6122 23.5191 21.6342 19.7386 21.6524C19.6199 26.3911 20.4138 37.2492 29.6873 41.0389C29.7296 41.0541 29.7758 41.0541 29.8181 41.0389C39.0916 37.2492 39.8824 26.3911 39.7638 21.6524ZM31.2628 29.463V33.1371C31.2628 33.538 31.1035 33.9225 30.82 34.206C30.5366 34.4895 30.1521 34.6487 29.7512 34.6487C29.3503 34.6487 28.9658 34.4895 28.6823 34.206C28.3988 33.9225 28.2395 33.538 28.2395 33.1371V29.463C27.765 29.1398 27.4065 28.6731 27.2166 28.1312C27.0267 27.5894 27.0155 27.0009 27.1846 26.4523C27.3537 25.9036 27.6942 25.4235 28.1561 25.0825C28.618 24.7415 29.177 24.5575 29.7512 24.5575C30.3253 24.5575 30.8843 24.7415 31.3463 25.0825C31.8082 25.4235 32.1486 25.9036 32.3177 26.4523C32.4868 27.0009 32.4756 27.5894 32.2857 28.1312C32.0959 28.6731 31.7374 29.1398 31.2628 29.463Z" fill="#2D5BE3"/>
<path d="M42.8201 19.7755C42.7868 19.3963 42.6066 19.045 42.3179 18.7967C42.0293 18.5484 41.6551 18.4227 41.2751 18.4464C36.9987 18.7566 33.2942 17.686 30.5508 15.3471C30.2884 15.1221 29.9539 14.9989 29.6083 15C29.2627 15.0011 28.9289 15.1265 28.6681 15.3532C25.9307 17.7104 22.4148 18.7536 18.2266 18.4494C17.8464 18.4226 17.4709 18.5468 17.1817 18.7951C16.8924 19.0433 16.7127 19.3956 16.6815 19.7755C16.6268 20.4538 16.5781 21.3784 16.5781 22.4733C16.5781 28.4894 18.0624 39.6943 28.4947 43.9554C29.3007 44.2798 30.201 44.2798 31.007 43.9554C43.3433 38.9129 43.1669 24.1738 42.8201 19.7755ZM29.9881 41.4614C29.8358 41.5223 29.6659 41.5223 29.5136 41.4614C19.8264 37.5014 19.136 26.1231 19.2911 21.4149C19.293 21.3558 19.3179 21.2998 19.3605 21.2589C19.4032 21.2179 19.4601 21.1953 19.5193 21.1959H19.644C23.4245 21.1959 26.7367 20.1679 29.4862 18.1453C29.5252 18.1171 29.572 18.102 29.6201 18.102C29.6681 18.102 29.7149 18.1171 29.7539 18.1453C32.5216 20.1405 36.0072 21.1959 39.8364 21.1959H39.9824C40.0415 21.1953 40.0985 21.2179 40.1412 21.2589C40.1838 21.2998 40.2087 21.3558 40.2105 21.4149C40.3654 26.1234 39.6752 37.5017 29.9881 41.4614Z" fill="#2D5BE3"/>
</svg>
