<svg width="59" height="59" viewBox="0 0 59 59" fill="none" xmlns="http://www.w3.org/2000/svg">
<circle cx="29.5" cy="29.5" r="29.5" fill="#ECF2F9"/>
<path d="M32.4512 22.68C32.4514 22.9345 32.553 23.1786 32.7336 23.3586C32.9142 23.5386 33.1591 23.6398 33.4146 23.64H40.5103C40.4368 23.54 40.3569 23.4448 40.2711 23.355L32.7375 15.8478C32.6472 15.7622 32.5516 15.6824 32.4512 15.6089V22.68Z" fill="#2D5BE3"/>
<path d="M33.4141 25.56C32.6479 25.5592 31.9132 25.2555 31.3714 24.7156C30.8296 24.1756 30.5248 23.4436 30.524 22.68V15H20.8901C20.1239 15.0008 19.3893 15.3045 18.8474 15.8445C18.3056 16.3844 18.0008 17.1164 18 17.88V40.92C18.0008 41.6836 18.3056 42.4157 18.8474 42.9556C19.3893 43.4955 20.1239 43.7992 20.8901 43.8H38.231C38.9973 43.7992 39.7319 43.4955 40.2737 42.9556C40.8156 42.4157 41.1203 41.6836 41.1212 40.92V25.56H33.4141ZM32.4507 37.08H24.7437C24.4882 37.08 24.2431 36.9789 24.0625 36.7989C23.8818 36.6188 23.7803 36.3746 23.7803 36.12C23.7803 35.8654 23.8818 35.6212 24.0625 35.4412C24.2431 35.2612 24.4882 35.16 24.7437 35.16H32.4507C32.7062 35.16 32.9513 35.2612 33.1319 35.4412C33.3126 35.6212 33.4141 35.8654 33.4141 36.12C33.4141 36.3746 33.3126 36.6188 33.1319 36.7989C32.9513 36.9789 32.7062 37.08 32.4507 37.08ZM34.3775 31.32H24.7437C24.4882 31.32 24.2431 31.2189 24.0625 31.0388C23.8818 30.8588 23.7803 30.6146 23.7803 30.36C23.7803 30.1054 23.8818 29.8612 24.0625 29.6812C24.2431 29.5012 24.4882 29.4 24.7437 29.4H34.3775C34.633 29.4 34.878 29.5012 35.0587 29.6812C35.2394 29.8612 35.3409 30.1054 35.3409 30.36C35.3409 30.6146 35.2394 30.8588 35.0587 31.0388C34.878 31.2189 34.633 31.32 34.3775 31.32Z" fill="#2D5BE3"/>
</svg>
