<svg width="60" height="56" viewBox="0 0 60 56" fill="none" xmlns="http://www.w3.org/2000/svg">
<circle cx="32.5" cy="28.5" r="27.5" fill="#ECF2F9"/>
<path d="M3.89156 34.8278V5.311H2.0994C0.921686 5.311 0 6.23021 0 7.40476V40.0367C0 41.2112 0.921686 42.1304 2.0994 42.1304H26.5241C27.7018 42.1304 28.6235 41.2112 28.6235 40.0367V38.3515H7.4247C5.47891 38.3515 3.89156 36.7684 3.89156 34.8278Z" fill="#2D5BE3"/>
<path d="M26.7289 8.93675H34L25.0392 0V0.0510672V7.25154C25.0392 8.17075 25.8073 8.93675 26.7289 8.93675Z" fill="#2D5BE3"/>
<path d="M23.6054 7.25153V0.0510559H7.42471C6.247 0.0510559 5.32532 0.970265 5.32532 2.14481V34.8278C5.32532 36.0023 6.247 36.9216 7.42471 36.9216H31.8494C33.0271 36.9216 33.9488 36.0023 33.9488 34.8278V10.3666H26.7289C24.988 10.3666 23.6054 8.98781 23.6054 7.25153ZM12.9548 10.2134H19.4578C19.8675 10.2134 20.1747 10.5198 20.1747 10.9284C20.1747 11.3369 19.8675 11.6433 19.4578 11.6433H12.9548C12.5452 11.6433 12.238 11.3369 12.238 10.9284C12.1868 10.5198 12.5452 10.2134 12.9548 10.2134ZM26.4217 30.385H12.9548C12.5452 30.385 12.238 30.0786 12.238 29.67C12.238 29.2615 12.5452 28.9551 12.9548 28.9551H26.4217C26.8313 28.9551 27.1386 29.2615 27.1386 29.67C27.1386 30.0275 26.7801 30.385 26.4217 30.385ZM26.4217 24.1548H12.9548C12.5452 24.1548 12.238 23.8484 12.238 23.4398C12.238 23.0313 12.5452 22.7249 12.9548 22.7249H26.4217C26.8313 22.7249 27.1386 23.0313 27.1386 23.4398C27.1386 23.8484 26.7801 24.1548 26.4217 24.1548ZM27.1386 17.1586C27.1386 17.5671 26.8313 17.8735 26.4217 17.8735H12.9548C12.5452 17.8735 12.238 17.5671 12.238 17.1586C12.238 16.75 12.5452 16.4436 12.9548 16.4436H26.4217C26.7801 16.4436 27.1386 16.75 27.1386 17.1586Z" fill="#2D5BE3"/>
</svg>
