<svg width="66" height="56" viewBox="0 0 66 56" fill="none" xmlns="http://www.w3.org/2000/svg">
<circle cx="38.5" cy="28.5" r="27.5" fill="#ECF2F9"/>
<path d="M0 4.004V28.028C0 30.2352 1.795 32.032 4 32.032H22.615L35.275 44.7047C35.47 44.8999 35.725 45 35.985 45C36.175 45 36.37 44.9449 36.54 44.8348C36.935 44.5696 37.095 44.0641 36.915 43.6236L32.195 32.032H41C43.205 32.032 45 30.2352 45 28.028V4.004C45 1.7968 43.205 0 41 0H4C1.795 0 0 1.7968 0 4.004ZM20 16.016H8.665L11.67 19.024C12.06 19.4144 12.06 20.0501 11.67 20.4404C11.475 20.6356 11.22 20.7357 10.965 20.7357C10.71 20.7357 10.455 20.6406 10.26 20.4404L5.55 15.7257C5.505 15.6807 5.46 15.6306 5.425 15.5756C5.415 15.5606 5.41 15.5455 5.4 15.5355C5.375 15.4955 5.35 15.4505 5.33 15.4054C5.32 15.3854 5.32 15.3654 5.31 15.3453C5.295 15.3053 5.28 15.2603 5.27 15.2202C5.255 15.1552 5.25 15.0901 5.25 15.02C5.25 14.95 5.255 14.8849 5.27 14.8198C5.28 14.7748 5.295 14.7347 5.31 14.6947C5.315 14.6747 5.32 14.6547 5.33 14.6346C5.35 14.5896 5.375 14.5495 5.4 14.5045C5.41 14.4895 5.415 14.4745 5.425 14.4645C5.46 14.4094 5.505 14.3594 5.55 14.3143L10.26 9.5996C10.65 9.20921 11.285 9.20921 11.675 9.5996C12.065 9.98999 12.065 10.6256 11.675 11.016L8.665 14.014H20C20.55 14.014 21 14.4645 21 15.015C21 15.5656 20.55 16.016 20 16.016ZM39.73 15.2152C39.72 15.2603 39.705 15.3003 39.69 15.3403C39.685 15.3604 39.68 15.3804 39.67 15.4004C39.65 15.4454 39.625 15.4855 39.6 15.5305C39.59 15.5455 39.585 15.5606 39.58 15.5706C39.545 15.6256 39.5 15.6757 39.455 15.7207L34.745 20.4354C34.55 20.6306 34.295 20.7307 34.04 20.7307C33.785 20.7307 33.53 20.6356 33.335 20.4354C32.945 20.045 32.945 19.4094 33.335 19.019L36.335 16.016H25C24.45 16.016 24 15.5656 24 15.015C24 14.4645 24.45 14.014 25 14.014H36.335L33.33 11.006C32.94 10.6156 32.94 9.97998 33.33 9.58959C33.72 9.1992 34.355 9.1992 34.745 9.58959L39.455 14.3043C39.5 14.3493 39.545 14.3994 39.58 14.4545C39.59 14.4695 39.595 14.4845 39.6 14.4945C39.625 14.5345 39.65 14.5796 39.67 14.6246C39.68 14.6446 39.68 14.6647 39.69 14.6847C39.705 14.7247 39.72 14.7698 39.73 14.8098C39.745 14.8749 39.75 14.9399 39.75 15.01C39.75 15.0801 39.745 15.1501 39.73 15.2152Z" fill="#2D5BE3"/>
</svg>
